<?xml version="1.0" encoding="UTF-8" standalone="no"?>
<svg
   xmlns:dc="http://purl.org/dc/elements/1.1/"
   xmlns:cc="http://creativecommons.org/ns#"
   xmlns:rdf="http://www.w3.org/1999/02/22-rdf-syntax-ns#"
   xmlns:svg="http://www.w3.org/2000/svg"
   xmlns="http://www.w3.org/2000/svg"
   xmlns:sodipodi="http://sodipodi.sourceforge.net/DTD/sodipodi-0.dtd"
   xmlns:inkscape="http://www.inkscape.org/namespaces/inkscape"
   width="244.86896mm"
   height="161.83443mm"
   viewBox="0 0 244.86896 161.83443"
   version="1.1"
   id="svg8"
   inkscape:version="1.0.2 (e86c870879, 2021-01-15)"
   sodipodi:docname="engineering-icon.svg">
  <defs
     id="defs2" />
  <sodipodi:namedview
     id="base"
     pagecolor="#ffffff"
     bordercolor="#666666"
     borderopacity="1.0"
     inkscape:pageopacity="0.0"
     inkscape:pageshadow="2"
     inkscape:zoom="0.18804483"
     inkscape:cx="-1095.5952"
     inkscape:cy="208.69542"
     inkscape:document-units="mm"
     inkscape:current-layer="layer1"
     inkscape:document-rotation="0"
     showgrid="false"
     inkscape:snap-bbox="true"
     inkscape:bbox-nodes="true"
     inkscape:snap-bbox-edge-midpoints="true"
     inkscape:snap-intersection-paths="true"
     inkscape:snap-bbox-midpoints="true"
     inkscape:window-width="1920"
     inkscape:window-height="1000"
     inkscape:window-x="0"
     inkscape:window-y="0"
     inkscape:window-maximized="1" />
  <metadata
     id="metadata5">
    <rdf:RDF>
      <cc:Work
         rdf:about="">
        <dc:format>image/svg+xml</dc:format>
        <dc:type
           rdf:resource="http://purl.org/dc/dcmitype/StillImage" />
        <dc:title></dc:title>
      </cc:Work>
    </rdf:RDF>
  </metadata>
  <g
     inkscape:label="Layer 1"
     inkscape:groupmode="layer"
     id="layer1"
     transform="translate(-267.44992,-75.32986)">
    <g
       id="g981"
       style="opacity:0.05">
      <g
         id="g885"
         style="fill:#aa0000"
         transform="translate(235.24672,8.0804123)">
        <path
           id="rect1435"
           style="opacity:0.946076;fill:#aa0000;stroke:none;stroke-width:4.99999;stroke-linecap:round;stroke-linejoin:round;stop-color:#000000"
           d="m 87.030762,125.43125 a 24.184475,24.184475 0 0 0 -4.186638,6.8686 24.184475,24.184475 0 0 0 13.36985,31.39035 24.184475,24.184475 0 0 0 10.851276,1.70763 l 35.32342,61.18196 c 1.385,2.39889 4.43128,3.21476 6.83016,1.82976 l 9.58075,-5.53144 c 2.39888,-1.385 3.21545,-4.43109 1.83046,-6.82997 l -35.32343,-61.18196 a 24.184475,24.184475 0 0 0 2.36198,-4.39318 l 0.17433,-0.436 a 24.184475,24.184475 0 0 0 -13.67405,-31.25887 24.184475,24.184475 0 0 0 -13.45709,-1.24562 l 9.5542,16.54836 c 1.03875,1.79916 0.42626,4.08361 -1.37291,5.12236 l -3.59278,2.07429 -3.59278,2.0743 c -1.79916,1.03874 -4.083803,0.42695 -5.122552,-1.37221 z" />
        <path
           id="path1466"
           style="fill:#aa0000;stroke:none;stroke-width:4.99999;stroke-linecap:round;stroke-linejoin:round;stop-color:#000000"
           d="M 94.805066,67.249448 A 74.440991,74.440991 0 0 0 61.531128,81.046022 l 5.896281,5.896798 c 3.696134,3.696116 3.696134,9.647256 0,13.34337 l -2.252576,2.25361 c -3.696116,3.69612 -9.646739,3.69612 -13.342854,0 L 45.947066,96.654373 A 74.440991,74.440991 0 0 0 32.203203,129.91694 h 8.288899 c 5.227093,0 9.434567,4.20799 9.434567,9.43508 v 3.18637 c 0,5.22709 -4.207474,9.43508 -9.434567,9.43508 h -8.266678 a 74.440991,74.440991 0 0 0 13.785721,33.19798 l 5.820834,-5.82084 c 3.696115,-3.69612 9.646738,-3.69612 13.342854,0 l 2.252576,2.25361 c 3.696134,3.69613 3.696134,9.64727 0,13.34338 l -5.808948,5.80894 a 74.440991,74.440991 0 0 0 33.186605,13.73095 v -8.20002 c 0,-5.22709 4.208507,-9.4356 9.435604,-9.4356 h 3.18585 c 5.22711,0 9.4356,4.20851 9.4356,9.4356 v 8.20002 a 74.440991,74.440991 0 0 0 13.55783,-3.35587 c -5.616,-9.6999 -11.21819,-19.40825 -16.81965,-29.11709 a 41.873058,41.873058 0 0 1 -40.793891,-15.40526 41.873058,41.873058 0 0 1 7.12773,-58.64189 41.873058,41.873058 0 0 1 26.042341,-8.971551 41.873058,41.873058 0 0 1 32.63263,15.814021 41.873058,41.873058 0 0 1 -1.95905,54.40805 c 2.43875,4.22438 4.87759,8.44876 7.31635,12.67313 0.0891,-0.0967 0.1785,-0.19298 0.27233,-0.28681 l 2.25361,-2.25361 c 3.69612,-3.69612 9.64726,-3.69612 13.34337,0 l 5.81928,5.8198 a 74.440991,74.440991 0 0 0 13.78624,-33.19694 h -8.26564 c -5.22711,0 -9.43457,-4.20799 -9.43457,-9.43508 v -3.18637 c 0,-5.22709 4.20746,-9.43508 9.43457,-9.43508 h 8.28786 A 74.440991,74.440991 0 0 0 165.72063,96.654373 l -5.88491,5.885427 c -3.69611,3.69612 -9.64725,3.69612 -13.34337,0 l -2.25361,-2.25258 c -3.69613,-3.696112 -3.69613,-9.648284 0,-13.3444 l 5.8968,-5.896798 A 74.440991,74.440991 0 0 0 116.86212,67.249448 v 8.353495 c 0,5.227094 -4.20849,9.4356 -9.4356,9.4356 h -3.18585 c -5.227097,0 -9.435604,-4.208506 -9.435604,-9.4356 z" />
      </g>
      <path
         id="path889"
         style="color:#000000;font-style:normal;font-variant:normal;font-weight:normal;font-stretch:normal;font-size:medium;line-height:normal;font-family:sans-serif;font-variant-ligatures:normal;font-variant-position:normal;font-variant-caps:normal;font-variant-numeric:normal;font-variant-alternates:normal;font-variant-east-asian:normal;font-feature-settings:normal;font-variation-settings:normal;text-indent:0;text-align:start;text-decoration:none;text-decoration-line:none;text-decoration-style:solid;text-decoration-color:#000000;letter-spacing:normal;word-spacing:normal;text-transform:none;writing-mode:lr-tb;direction:ltr;text-orientation:mixed;dominant-baseline:auto;baseline-shift:baseline;text-anchor:start;white-space:normal;shape-padding:0;shape-margin:0;inline-size:0;clip-rule:nonzero;display:inline;overflow:visible;visibility:visible;isolation:auto;mix-blend-mode:normal;color-interpolation:sRGB;color-interpolation-filters:linearRGB;solid-color:#000000;solid-opacity:1;vector-effect:none;fill:#aa0000;fill-opacity:1;fill-rule:nonzero;stroke:none;stroke-width:1;stroke-linecap:butt;stroke-linejoin:miter;stroke-miterlimit:4;stroke-dasharray:none;stroke-dashoffset:0;stroke-opacity:1;color-rendering:auto;image-rendering:auto;shape-rendering:auto;text-rendering:auto;enable-background:accumulate;stop-color:#000000"
         d="m 445.36257,89.423125 a 7.1628126,7.1628126 0 0 0 -4.39973,1.53479 7.1628126,7.1628126 0 0 0 -2.14715,8.464079 l -9.75651,9.757546 h -16.59796 a 94.12117,94.12117 0 0 1 1.88775,5.29115 h 16.9018 l 11.30681,-11.30732 a 7.1628126,7.1628126 0 0 0 7.21093,-0.90641 l 0.10955,-0.0858 a 7.1628126,7.1628126 0 0 0 1.1219,-10.042794 7.1628126,7.1628126 0 0 0 -5.63739,-2.705261 z m 36.94297,32.917365 a 7.1628126,7.1628126 0 0 0 -4.39973,1.53479 7.1628126,7.1628126 0 0 0 -2.32751,8.00261 l -11.98066,6.91689 h -44.79417 a 94.12117,94.12117 0 0 1 0.11266,5.29115 h 46.09951 l 14.14022,-8.16436 a 7.1628126,7.1628126 0 0 0 7.55561,-0.74724 l 0.10955,-0.0858 a 7.1628126,7.1628126 0 0 0 1.1219,-10.0428 7.1628126,7.1628126 0 0 0 -5.63738,-2.70526 z m -66.75923,46.06954 a 94.12117,94.12117 0 0 1 -1.62523,5.29115 h 72.49274 l 11.98428,6.91896 a 7.1628126,7.1628126 0 0 0 1.10794,6.77633 7.1628126,7.1628126 0 0 0 10.02522,1.26814 l 0.10957,-0.0858 a 7.1628126,7.1628126 0 0 0 1.12188,-10.04279 7.1628126,7.1628126 0 0 0 -8.78551,-1.96112 l -14.14177,-8.16488 z m -14.07305,29.61525 a 94.12117,94.12117 0 0 1 -4.05763,5.2927 h 56.0064 l 9.75444,9.75392 a 7.1628126,7.1628126 0 0 0 0.9276,7.23935 7.1628126,7.1628126 0 0 0 10.02522,1.26814 l 0.10956,-0.0858 a 7.1628126,7.1628126 0 0 0 1.12189,-10.0428 7.1628126,7.1628126 0 0 0 -8.44341,-2.11976 l -11.30525,-11.30575 z" />
    </g>
  </g>
</svg>
