<?xml version="1.0" encoding="UTF-8"?>
<svg width="500mm" height="500mm" version="1.1" viewBox="0 0 500 500" xmlns="http://www.w3.org/2000/svg" xmlns:cc="http://creativecommons.org/ns#" xmlns:dc="http://purl.org/dc/elements/1.1/" xmlns:rdf="http://www.w3.org/1999/02/22-rdf-syntax-ns#">
 <metadata>
  <rdf:RDF>
   <cc:Work rdf:about="">
    <dc:format>image/svg+xml</dc:format>
    <dc:type rdf:resource="http://purl.org/dc/dcmitype/StillImage"/>
    <dc:title/>
   </cc:Work>
  </rdf:RDF>
 </metadata>
 <g transform="translate(160.82 169.71)">
  <g transform="matrix(.23622 0 0 .23622 458.03 -652.22)" opacity=".1" shape-rendering="auto" stroke-width="4.2333">
   <g transform="translate(-1453.2 1168.9)">
    <path d="m-1041 873.7v99.219h-19.843a6.6153 6.6153 0 0 0-6.6151 6.6135v19.844h-99.219v13.229h99.219v19.844a6.6153 6.6153 0 0 0 6.6151 6.6136h19.843v99.219h13.229v-99.219h19.844a6.6153 6.6153 0 0 0 6.6151-6.6136v-19.844h99.218v-13.229h-99.218v-19.844a6.6153 6.6153 0 0 0-6.6151-6.6135h-19.844v-99.219zm-13.23 112.45h13.23v13.229h-13.23zm26.459 0h13.229v13.229h-13.229zm-26.459 26.458h13.23v13.229h-13.23zm26.459 0h13.229v13.229h-13.229z" color="#000000" color-rendering="auto" dominant-baseline="auto" image-rendering="auto" opacity="1" solid-color="#000000" stop-color="#000000" style="font-feature-settings:normal;font-variant-alternates:normal;font-variant-caps:normal;font-variant-east-asian:normal;font-variant-ligatures:normal;font-variant-numeric:normal;font-variant-position:normal;font-variation-settings:normal;inline-size:0;isolation:auto;mix-blend-mode:normal;shape-margin:0;shape-padding:0;text-decoration-color:#000000;text-decoration-line:none;text-decoration-style:solid;text-indent:0;text-orientation:mixed;text-transform:none;white-space:normal"/>
    <path d="m-1041 1138.3v99.219h-19.843a6.6153 6.6153 0 0 0-6.6151 6.6135v19.844h-99.219v13.229h99.219v19.844a6.6153 6.6153 0 0 0 6.6151 6.6136h19.843v99.219h13.229v-99.219h19.844a6.6153 6.6153 0 0 0 6.6151-6.6136v-19.844h99.218v-13.229h-99.218v-19.844a6.6153 6.6153 0 0 0-6.6151-6.6135h-19.844v-99.219zm-13.23 112.45h13.23v13.229h-13.23zm26.459 0h13.229v13.229h-13.229zm-26.459 26.458h13.23v13.229h-13.23zm26.459 0h13.229v13.229h-13.229z" color="#000000" color-rendering="auto" dominant-baseline="auto" image-rendering="auto" opacity="1" solid-color="#000000" stop-color="#000000" style="font-feature-settings:normal;font-variant-alternates:normal;font-variant-caps:normal;font-variant-east-asian:normal;font-variant-ligatures:normal;font-variant-numeric:normal;font-variant-position:normal;font-variation-settings:normal;inline-size:0;isolation:auto;mix-blend-mode:normal;shape-margin:0;shape-padding:0;text-decoration-color:#000000;text-decoration-line:none;text-decoration-style:solid;text-indent:0;text-orientation:mixed;text-transform:none;white-space:normal"/>
    <path d="m-776.4 1138.3v99.219h-19.843a6.6153 6.6153 0 0 0-6.6151 6.6135v19.844h-99.219v13.229h99.219v19.844a6.6153 6.6153 0 0 0 6.6151 6.6136h19.843v99.219h13.229v-99.219h19.844a6.6153 6.6153 0 0 0 6.6151-6.6136v-19.844h99.218v-13.229h-99.218v-19.844a6.6153 6.6153 0 0 0-6.6151-6.6135h-19.844v-99.219zm-13.23 112.45h13.23v13.229h-13.23zm26.459 0h13.229v13.229h-13.229zm-26.459 26.458h13.23v13.229h-13.23zm26.459 0h13.229v13.229h-13.229z" color="#000000" color-rendering="auto" dominant-baseline="auto" image-rendering="auto" opacity="1" solid-color="#000000" stop-color="#000000" style="font-feature-settings:normal;font-variant-alternates:normal;font-variant-caps:normal;font-variant-east-asian:normal;font-variant-ligatures:normal;font-variant-numeric:normal;font-variant-position:normal;font-variation-settings:normal;inline-size:0;isolation:auto;mix-blend-mode:normal;shape-margin:0;shape-padding:0;text-decoration-color:#000000;text-decoration-line:none;text-decoration-style:solid;text-indent:0;text-orientation:mixed;text-transform:none;white-space:normal"/>
    <path d="m-776.4 873.7v99.219h-19.843a6.6153 6.6153 0 0 0-6.6151 6.6135v19.844h-99.219v13.229h99.219v19.844a6.6153 6.6153 0 0 0 6.6151 6.6136h19.843v99.219h13.229v-99.219h19.844a6.6153 6.6153 0 0 0 6.6151-6.6136v-19.844h99.218v-13.229h-99.218v-19.844a6.6153 6.6153 0 0 0-6.6151-6.6135h-19.844v-99.219zm-13.23 112.45h13.23v13.229h-13.23zm26.459 0h13.229v13.229h-13.229zm-26.459 26.458h13.23v13.229h-13.23zm26.459 0h13.229v13.229h-13.229z" color="#000000" color-rendering="auto" dominant-baseline="auto" image-rendering="auto" opacity="1" solid-color="#000000" stop-color="#000000" style="font-feature-settings:normal;font-variant-alternates:normal;font-variant-caps:normal;font-variant-east-asian:normal;font-variant-ligatures:normal;font-variant-numeric:normal;font-variant-position:normal;font-variation-settings:normal;inline-size:0;isolation:auto;mix-blend-mode:normal;shape-margin:0;shape-padding:0;text-decoration-color:#000000;text-decoration-line:none;text-decoration-style:solid;text-indent:0;text-orientation:mixed;text-transform:none;white-space:normal"/>
   </g>
   <g transform="translate(-1466.4 1168.9)">
    <path d="m-1027.8 1402.9v99.219h-19.843a6.6153 6.6153 0 0 0-6.6151 6.6135v19.844h-99.219v13.229h99.219v19.844a6.6153 6.6153 0 0 0 6.6151 6.6136h19.843v99.219h13.229v-99.219h19.844a6.6153 6.6153 0 0 0 6.6151-6.6136v-19.844h99.218v-13.229h-99.218v-19.844a6.6153 6.6153 0 0 0-6.6151-6.6135h-19.844v-99.219zm-13.23 112.45h13.23v13.229h-13.23zm26.459 0h13.229v13.229h-13.229zm-26.459 26.458h13.23v13.229h-13.23zm26.459 0h13.229v13.229h-13.229z" color="#000000" color-rendering="auto" dominant-baseline="auto" image-rendering="auto" opacity="1" solid-color="#000000" stop-color="#000000" style="font-feature-settings:normal;font-variant-alternates:normal;font-variant-caps:normal;font-variant-east-asian:normal;font-variant-ligatures:normal;font-variant-numeric:normal;font-variant-position:normal;font-variation-settings:normal;inline-size:0;isolation:auto;mix-blend-mode:normal;shape-margin:0;shape-padding:0;text-decoration-color:#000000;text-decoration-line:none;text-decoration-style:solid;text-indent:0;text-orientation:mixed;text-transform:none;white-space:normal"/>
    <path d="m-1027.8 1667.4v99.219h-19.843a6.6153 6.6153 0 0 0-6.6151 6.6135v19.844h-99.219v13.229h99.219v19.844a6.6153 6.6153 0 0 0 6.6151 6.6136h19.843v99.219h13.229v-99.219h19.844a6.6153 6.6153 0 0 0 6.6151-6.6136v-19.844h99.218v-13.229h-99.218v-19.844a6.6153 6.6153 0 0 0-6.6151-6.6135h-19.844v-99.219zm-13.23 112.45h13.23v13.229h-13.23zm26.459 0h13.229v13.229h-13.229zm-26.459 26.458h13.23v13.229h-13.23zm26.459 0h13.229v13.229h-13.229z" color="#000000" color-rendering="auto" dominant-baseline="auto" image-rendering="auto" opacity="1" solid-color="#000000" stop-color="#000000" style="font-feature-settings:normal;font-variant-alternates:normal;font-variant-caps:normal;font-variant-east-asian:normal;font-variant-ligatures:normal;font-variant-numeric:normal;font-variant-position:normal;font-variation-settings:normal;inline-size:0;isolation:auto;mix-blend-mode:normal;shape-margin:0;shape-padding:0;text-decoration-color:#000000;text-decoration-line:none;text-decoration-style:solid;text-indent:0;text-orientation:mixed;text-transform:none;white-space:normal"/>
    <path d="m-763.17 1667.4v99.219h-19.843a6.6153 6.6153 0 0 0-6.6151 6.6135v19.844h-99.219v13.229h99.219v19.844a6.6153 6.6153 0 0 0 6.6151 6.6136h19.843v99.219h13.229v-99.219h19.844a6.6153 6.6153 0 0 0 6.6151-6.6136v-19.844h99.218v-13.229h-99.218v-19.844a6.6153 6.6153 0 0 0-6.6151-6.6135h-19.844v-99.219zm-13.23 112.45h13.23v13.229h-13.23zm26.459 0h13.229v13.229h-13.229zm-26.459 26.458h13.23v13.229h-13.23zm26.459 0h13.229v13.229h-13.229z" color="#000000" color-rendering="auto" dominant-baseline="auto" image-rendering="auto" opacity="1" solid-color="#000000" stop-color="#000000" style="font-feature-settings:normal;font-variant-alternates:normal;font-variant-caps:normal;font-variant-east-asian:normal;font-variant-ligatures:normal;font-variant-numeric:normal;font-variant-position:normal;font-variation-settings:normal;inline-size:0;isolation:auto;mix-blend-mode:normal;shape-margin:0;shape-padding:0;text-decoration-color:#000000;text-decoration-line:none;text-decoration-style:solid;text-indent:0;text-orientation:mixed;text-transform:none;white-space:normal"/>
    <path d="m-763.17 1402.9v99.219h-19.843a6.6153 6.6153 0 0 0-6.6151 6.6135v19.844h-99.219v13.229h99.219v19.844a6.6153 6.6153 0 0 0 6.6151 6.6136h19.843v99.219h13.229v-99.219h19.844a6.6153 6.6153 0 0 0 6.6151-6.6136v-19.844h99.218v-13.229h-99.218v-19.844a6.6153 6.6153 0 0 0-6.6151-6.6135h-19.844v-99.219zm-13.23 112.45h13.23v13.229h-13.23zm26.459 0h13.229v13.229h-13.229zm-26.459 26.458h13.23v13.229h-13.23zm26.459 0h13.229v13.229h-13.229z" color="#000000" color-rendering="auto" dominant-baseline="auto" image-rendering="auto" opacity="1" solid-color="#000000" stop-color="#000000" style="font-feature-settings:normal;font-variant-alternates:normal;font-variant-caps:normal;font-variant-east-asian:normal;font-variant-ligatures:normal;font-variant-numeric:normal;font-variant-position:normal;font-variation-settings:normal;inline-size:0;isolation:auto;mix-blend-mode:normal;shape-margin:0;shape-padding:0;text-decoration-color:#000000;text-decoration-line:none;text-decoration-style:solid;text-indent:0;text-orientation:mixed;text-transform:none;white-space:normal"/>
   </g>
   <g transform="translate(-1453.2 2227.2)">
    <path d="m-1041 873.7v99.219h-19.843a6.6153 6.6153 0 0 0-6.6151 6.6135v19.844h-99.219v13.229h99.219v19.844a6.6153 6.6153 0 0 0 6.6151 6.6136h19.843v99.219h13.229v-99.219h19.844a6.6153 6.6153 0 0 0 6.6151-6.6136v-19.844h99.218v-13.229h-99.218v-19.844a6.6153 6.6153 0 0 0-6.6151-6.6135h-19.844v-99.219zm-13.23 112.45h13.23v13.229h-13.23zm26.459 0h13.229v13.229h-13.229zm-26.459 26.458h13.23v13.229h-13.23zm26.459 0h13.229v13.229h-13.229z" color="#000000" color-rendering="auto" dominant-baseline="auto" image-rendering="auto" opacity="1" solid-color="#000000" stop-color="#000000" style="font-feature-settings:normal;font-variant-alternates:normal;font-variant-caps:normal;font-variant-east-asian:normal;font-variant-ligatures:normal;font-variant-numeric:normal;font-variant-position:normal;font-variation-settings:normal;inline-size:0;isolation:auto;mix-blend-mode:normal;shape-margin:0;shape-padding:0;text-decoration-color:#000000;text-decoration-line:none;text-decoration-style:solid;text-indent:0;text-orientation:mixed;text-transform:none;white-space:normal"/>
    <path d="m-1041 1138.3v99.219h-19.843a6.6153 6.6153 0 0 0-6.6151 6.6135v19.844h-99.219v13.229h99.219v19.844a6.6153 6.6153 0 0 0 6.6151 6.6136h19.843v99.219h13.229v-99.219h19.844a6.6153 6.6153 0 0 0 6.6151-6.6136v-19.844h99.218v-13.229h-99.218v-19.844a6.6153 6.6153 0 0 0-6.6151-6.6135h-19.844v-99.219zm-13.23 112.45h13.23v13.229h-13.23zm26.459 0h13.229v13.229h-13.229zm-26.459 26.458h13.23v13.229h-13.23zm26.459 0h13.229v13.229h-13.229z" color="#000000" color-rendering="auto" dominant-baseline="auto" image-rendering="auto" opacity="1" solid-color="#000000" stop-color="#000000" style="font-feature-settings:normal;font-variant-alternates:normal;font-variant-caps:normal;font-variant-east-asian:normal;font-variant-ligatures:normal;font-variant-numeric:normal;font-variant-position:normal;font-variation-settings:normal;inline-size:0;isolation:auto;mix-blend-mode:normal;shape-margin:0;shape-padding:0;text-decoration-color:#000000;text-decoration-line:none;text-decoration-style:solid;text-indent:0;text-orientation:mixed;text-transform:none;white-space:normal"/>
    <path d="m-776.4 1138.3v99.219h-19.843a6.6153 6.6153 0 0 0-6.6151 6.6135v19.844h-99.219v13.229h99.219v19.844a6.6153 6.6153 0 0 0 6.6151 6.6136h19.843v99.219h13.229v-99.219h19.844a6.6153 6.6153 0 0 0 6.6151-6.6136v-19.844h99.218v-13.229h-99.218v-19.844a6.6153 6.6153 0 0 0-6.6151-6.6135h-19.844v-99.219zm-13.23 112.45h13.23v13.229h-13.23zm26.459 0h13.229v13.229h-13.229zm-26.459 26.458h13.23v13.229h-13.23zm26.459 0h13.229v13.229h-13.229z" color="#000000" color-rendering="auto" dominant-baseline="auto" image-rendering="auto" opacity="1" solid-color="#000000" stop-color="#000000" style="font-feature-settings:normal;font-variant-alternates:normal;font-variant-caps:normal;font-variant-east-asian:normal;font-variant-ligatures:normal;font-variant-numeric:normal;font-variant-position:normal;font-variation-settings:normal;inline-size:0;isolation:auto;mix-blend-mode:normal;shape-margin:0;shape-padding:0;text-decoration-color:#000000;text-decoration-line:none;text-decoration-style:solid;text-indent:0;text-orientation:mixed;text-transform:none;white-space:normal"/>
    <path d="m-776.4 873.7v99.219h-19.843a6.6153 6.6153 0 0 0-6.6151 6.6135v19.844h-99.219v13.229h99.219v19.844a6.6153 6.6153 0 0 0 6.6151 6.6136h19.843v99.219h13.229v-99.219h19.844a6.6153 6.6153 0 0 0 6.6151-6.6136v-19.844h99.218v-13.229h-99.218v-19.844a6.6153 6.6153 0 0 0-6.6151-6.6135h-19.844v-99.219zm-13.23 112.45h13.23v13.229h-13.23zm26.459 0h13.229v13.229h-13.229zm-26.459 26.458h13.23v13.229h-13.23zm26.459 0h13.229v13.229h-13.229z" color="#000000" color-rendering="auto" dominant-baseline="auto" image-rendering="auto" opacity="1" solid-color="#000000" stop-color="#000000" style="font-feature-settings:normal;font-variant-alternates:normal;font-variant-caps:normal;font-variant-east-asian:normal;font-variant-ligatures:normal;font-variant-numeric:normal;font-variant-position:normal;font-variation-settings:normal;inline-size:0;isolation:auto;mix-blend-mode:normal;shape-margin:0;shape-padding:0;text-decoration-color:#000000;text-decoration-line:none;text-decoration-style:solid;text-indent:0;text-orientation:mixed;text-transform:none;white-space:normal"/>
   </g>
   <g transform="translate(-1466.4 2227.2)">
    <path d="m-1027.8 1402.9v99.219h-19.843a6.6153 6.6153 0 0 0-6.6151 6.6135v19.844h-99.219v13.229h99.219v19.844a6.6153 6.6153 0 0 0 6.6151 6.6136h19.843v99.219h13.229v-99.219h19.844a6.6153 6.6153 0 0 0 6.6151-6.6136v-19.844h99.218v-13.229h-99.218v-19.844a6.6153 6.6153 0 0 0-6.6151-6.6135h-19.844v-99.219zm-13.23 112.45h13.23v13.229h-13.23zm26.459 0h13.229v13.229h-13.229zm-26.459 26.458h13.23v13.229h-13.23zm26.459 0h13.229v13.229h-13.229z" color="#000000" color-rendering="auto" dominant-baseline="auto" image-rendering="auto" opacity="1" solid-color="#000000" stop-color="#000000" style="font-feature-settings:normal;font-variant-alternates:normal;font-variant-caps:normal;font-variant-east-asian:normal;font-variant-ligatures:normal;font-variant-numeric:normal;font-variant-position:normal;font-variation-settings:normal;inline-size:0;isolation:auto;mix-blend-mode:normal;shape-margin:0;shape-padding:0;text-decoration-color:#000000;text-decoration-line:none;text-decoration-style:solid;text-indent:0;text-orientation:mixed;text-transform:none;white-space:normal"/>
    <path d="m-1027.8 1667.4v99.219h-19.843a6.6153 6.6153 0 0 0-6.6151 6.6135v19.844h-99.219v13.229h99.219v19.844a6.6153 6.6153 0 0 0 6.6151 6.6136h19.843v99.219h13.229v-99.219h19.844a6.6153 6.6153 0 0 0 6.6151-6.6136v-19.844h99.218v-13.229h-99.218v-19.844a6.6153 6.6153 0 0 0-6.6151-6.6135h-19.844v-99.219zm-13.23 112.45h13.23v13.229h-13.23zm26.459 0h13.229v13.229h-13.229zm-26.459 26.458h13.23v13.229h-13.23zm26.459 0h13.229v13.229h-13.229z" color="#000000" color-rendering="auto" dominant-baseline="auto" image-rendering="auto" opacity="1" solid-color="#000000" stop-color="#000000" style="font-feature-settings:normal;font-variant-alternates:normal;font-variant-caps:normal;font-variant-east-asian:normal;font-variant-ligatures:normal;font-variant-numeric:normal;font-variant-position:normal;font-variation-settings:normal;inline-size:0;isolation:auto;mix-blend-mode:normal;shape-margin:0;shape-padding:0;text-decoration-color:#000000;text-decoration-line:none;text-decoration-style:solid;text-indent:0;text-orientation:mixed;text-transform:none;white-space:normal"/>
    <path d="m-763.17 1667.4v99.219h-19.843a6.6153 6.6153 0 0 0-6.6151 6.6135v19.844h-99.219v13.229h99.219v19.844a6.6153 6.6153 0 0 0 6.6151 6.6136h19.843v99.219h13.229v-99.219h19.844a6.6153 6.6153 0 0 0 6.6151-6.6136v-19.844h99.218v-13.229h-99.218v-19.844a6.6153 6.6153 0 0 0-6.6151-6.6135h-19.844v-99.219zm-13.23 112.45h13.23v13.229h-13.23zm26.459 0h13.229v13.229h-13.229zm-26.459 26.458h13.23v13.229h-13.23zm26.459 0h13.229v13.229h-13.229z" color="#000000" color-rendering="auto" dominant-baseline="auto" image-rendering="auto" opacity="1" solid-color="#000000" stop-color="#000000" style="font-feature-settings:normal;font-variant-alternates:normal;font-variant-caps:normal;font-variant-east-asian:normal;font-variant-ligatures:normal;font-variant-numeric:normal;font-variant-position:normal;font-variation-settings:normal;inline-size:0;isolation:auto;mix-blend-mode:normal;shape-margin:0;shape-padding:0;text-decoration-color:#000000;text-decoration-line:none;text-decoration-style:solid;text-indent:0;text-orientation:mixed;text-transform:none;white-space:normal"/>
    <path d="m-763.17 1402.9v99.219h-19.843a6.6153 6.6153 0 0 0-6.6151 6.6135v19.844h-99.219v13.229h99.219v19.844a6.6153 6.6153 0 0 0 6.6151 6.6136h19.843v99.219h13.229v-99.219h19.844a6.6153 6.6153 0 0 0 6.6151-6.6136v-19.844h99.218v-13.229h-99.218v-19.844a6.6153 6.6153 0 0 0-6.6151-6.6135h-19.844v-99.219zm-13.23 112.45h13.23v13.229h-13.23zm26.459 0h13.229v13.229h-13.229zm-26.459 26.458h13.23v13.229h-13.23zm26.459 0h13.229v13.229h-13.229z" color="#000000" color-rendering="auto" dominant-baseline="auto" image-rendering="auto" opacity="1" solid-color="#000000" stop-color="#000000" style="font-feature-settings:normal;font-variant-alternates:normal;font-variant-caps:normal;font-variant-east-asian:normal;font-variant-ligatures:normal;font-variant-numeric:normal;font-variant-position:normal;font-variation-settings:normal;inline-size:0;isolation:auto;mix-blend-mode:normal;shape-margin:0;shape-padding:0;text-decoration-color:#000000;text-decoration-line:none;text-decoration-style:solid;text-indent:0;text-orientation:mixed;text-transform:none;white-space:normal"/>
   </g>
   <g transform="translate(-924 1698.1)">
    <path d="m-1041 873.7v99.219h-19.843a6.6153 6.6153 0 0 0-6.6151 6.6135v19.844h-99.219v13.229h99.219v19.844a6.6153 6.6153 0 0 0 6.6151 6.6136h19.843v99.219h13.229v-99.219h19.844a6.6153 6.6153 0 0 0 6.6151-6.6136v-19.844h99.218v-13.229h-99.218v-19.844a6.6153 6.6153 0 0 0-6.6151-6.6135h-19.844v-99.219zm-13.23 112.45h13.23v13.229h-13.23zm26.459 0h13.229v13.229h-13.229zm-26.459 26.458h13.23v13.229h-13.23zm26.459 0h13.229v13.229h-13.229z" color="#000000" color-rendering="auto" dominant-baseline="auto" image-rendering="auto" opacity="1" solid-color="#000000" stop-color="#000000" style="font-feature-settings:normal;font-variant-alternates:normal;font-variant-caps:normal;font-variant-east-asian:normal;font-variant-ligatures:normal;font-variant-numeric:normal;font-variant-position:normal;font-variation-settings:normal;inline-size:0;isolation:auto;mix-blend-mode:normal;shape-margin:0;shape-padding:0;text-decoration-color:#000000;text-decoration-line:none;text-decoration-style:solid;text-indent:0;text-orientation:mixed;text-transform:none;white-space:normal"/>
    <path d="m-1041 1138.3v99.219h-19.843a6.6153 6.6153 0 0 0-6.6151 6.6135v19.844h-99.219v13.229h99.219v19.844a6.6153 6.6153 0 0 0 6.6151 6.6136h19.843v99.219h13.229v-99.219h19.844a6.6153 6.6153 0 0 0 6.6151-6.6136v-19.844h99.218v-13.229h-99.218v-19.844a6.6153 6.6153 0 0 0-6.6151-6.6135h-19.844v-99.219zm-13.23 112.45h13.23v13.229h-13.23zm26.459 0h13.229v13.229h-13.229zm-26.459 26.458h13.23v13.229h-13.23zm26.459 0h13.229v13.229h-13.229z" color="#000000" color-rendering="auto" dominant-baseline="auto" image-rendering="auto" opacity="1" solid-color="#000000" stop-color="#000000" style="font-feature-settings:normal;font-variant-alternates:normal;font-variant-caps:normal;font-variant-east-asian:normal;font-variant-ligatures:normal;font-variant-numeric:normal;font-variant-position:normal;font-variation-settings:normal;inline-size:0;isolation:auto;mix-blend-mode:normal;shape-margin:0;shape-padding:0;text-decoration-color:#000000;text-decoration-line:none;text-decoration-style:solid;text-indent:0;text-orientation:mixed;text-transform:none;white-space:normal"/>
    <path d="m-776.4 1138.3v99.219h-19.843a6.6153 6.6153 0 0 0-6.6151 6.6135v19.844h-99.219v13.229h99.219v19.844a6.6153 6.6153 0 0 0 6.6151 6.6136h19.843v99.219h13.229v-99.219h19.844a6.6153 6.6153 0 0 0 6.6151-6.6136v-19.844h99.218v-13.229h-99.218v-19.844a6.6153 6.6153 0 0 0-6.6151-6.6135h-19.844v-99.219zm-13.23 112.45h13.23v13.229h-13.23zm26.459 0h13.229v13.229h-13.229zm-26.459 26.458h13.23v13.229h-13.23zm26.459 0h13.229v13.229h-13.229z" color="#000000" color-rendering="auto" dominant-baseline="auto" image-rendering="auto" opacity="1" solid-color="#000000" stop-color="#000000" style="font-feature-settings:normal;font-variant-alternates:normal;font-variant-caps:normal;font-variant-east-asian:normal;font-variant-ligatures:normal;font-variant-numeric:normal;font-variant-position:normal;font-variation-settings:normal;inline-size:0;isolation:auto;mix-blend-mode:normal;shape-margin:0;shape-padding:0;text-decoration-color:#000000;text-decoration-line:none;text-decoration-style:solid;text-indent:0;text-orientation:mixed;text-transform:none;white-space:normal"/>
    <path d="m-776.4 873.7v99.219h-19.843a6.6153 6.6153 0 0 0-6.6151 6.6135v19.844h-99.219v13.229h99.219v19.844a6.6153 6.6153 0 0 0 6.6151 6.6136h19.843v99.219h13.229v-99.219h19.844a6.6153 6.6153 0 0 0 6.6151-6.6136v-19.844h99.218v-13.229h-99.218v-19.844a6.6153 6.6153 0 0 0-6.6151-6.6135h-19.844v-99.219zm-13.23 112.45h13.23v13.229h-13.23zm26.459 0h13.229v13.229h-13.229zm-26.459 26.458h13.23v13.229h-13.23zm26.459 0h13.229v13.229h-13.229z" color="#000000" color-rendering="auto" dominant-baseline="auto" image-rendering="auto" opacity="1" solid-color="#000000" stop-color="#000000" style="font-feature-settings:normal;font-variant-alternates:normal;font-variant-caps:normal;font-variant-east-asian:normal;font-variant-ligatures:normal;font-variant-numeric:normal;font-variant-position:normal;font-variation-settings:normal;inline-size:0;isolation:auto;mix-blend-mode:normal;shape-margin:0;shape-padding:0;text-decoration-color:#000000;text-decoration-line:none;text-decoration-style:solid;text-indent:0;text-orientation:mixed;text-transform:none;white-space:normal"/>
   </g>
   <g transform="translate(-924 2227.2)">
    <path d="m-1041 873.7v99.219h-19.843a6.6153 6.6153 0 0 0-6.6151 6.6135v19.844h-99.219v13.229h99.219v19.844a6.6153 6.6153 0 0 0 6.6151 6.6136h19.843v99.219h13.229v-99.219h19.844a6.6153 6.6153 0 0 0 6.6151-6.6136v-19.844h99.218v-13.229h-99.218v-19.844a6.6153 6.6153 0 0 0-6.6151-6.6135h-19.844v-99.219zm-13.23 112.45h13.23v13.229h-13.23zm26.459 0h13.229v13.229h-13.229zm-26.459 26.458h13.23v13.229h-13.23zm26.459 0h13.229v13.229h-13.229z" color="#000000" color-rendering="auto" dominant-baseline="auto" image-rendering="auto" opacity="1" solid-color="#000000" stop-color="#000000" style="font-feature-settings:normal;font-variant-alternates:normal;font-variant-caps:normal;font-variant-east-asian:normal;font-variant-ligatures:normal;font-variant-numeric:normal;font-variant-position:normal;font-variation-settings:normal;inline-size:0;isolation:auto;mix-blend-mode:normal;shape-margin:0;shape-padding:0;text-decoration-color:#000000;text-decoration-line:none;text-decoration-style:solid;text-indent:0;text-orientation:mixed;text-transform:none;white-space:normal"/>
    <path d="m-1041 1138.3v99.219h-19.843a6.6153 6.6153 0 0 0-6.6151 6.6135v19.844h-99.219v13.229h99.219v19.844a6.6153 6.6153 0 0 0 6.6151 6.6136h19.843v99.219h13.229v-99.219h19.844a6.6153 6.6153 0 0 0 6.6151-6.6136v-19.844h99.218v-13.229h-99.218v-19.844a6.6153 6.6153 0 0 0-6.6151-6.6135h-19.844v-99.219zm-13.23 112.45h13.23v13.229h-13.23zm26.459 0h13.229v13.229h-13.229zm-26.459 26.458h13.23v13.229h-13.23zm26.459 0h13.229v13.229h-13.229z" color="#000000" color-rendering="auto" dominant-baseline="auto" image-rendering="auto" opacity="1" solid-color="#000000" stop-color="#000000" style="font-feature-settings:normal;font-variant-alternates:normal;font-variant-caps:normal;font-variant-east-asian:normal;font-variant-ligatures:normal;font-variant-numeric:normal;font-variant-position:normal;font-variation-settings:normal;inline-size:0;isolation:auto;mix-blend-mode:normal;shape-margin:0;shape-padding:0;text-decoration-color:#000000;text-decoration-line:none;text-decoration-style:solid;text-indent:0;text-orientation:mixed;text-transform:none;white-space:normal"/>
    <path d="m-776.4 1138.3v99.219h-19.843a6.6153 6.6153 0 0 0-6.6151 6.6135v19.844h-99.219v13.229h99.219v19.844a6.6153 6.6153 0 0 0 6.6151 6.6136h19.843v99.219h13.229v-99.219h19.844a6.6153 6.6153 0 0 0 6.6151-6.6136v-19.844h99.218v-13.229h-99.218v-19.844a6.6153 6.6153 0 0 0-6.6151-6.6135h-19.844v-99.219zm-13.23 112.45h13.23v13.229h-13.23zm26.459 0h13.229v13.229h-13.229zm-26.459 26.458h13.23v13.229h-13.23zm26.459 0h13.229v13.229h-13.229z" color="#000000" color-rendering="auto" dominant-baseline="auto" image-rendering="auto" opacity="1" solid-color="#000000" stop-color="#000000" style="font-feature-settings:normal;font-variant-alternates:normal;font-variant-caps:normal;font-variant-east-asian:normal;font-variant-ligatures:normal;font-variant-numeric:normal;font-variant-position:normal;font-variation-settings:normal;inline-size:0;isolation:auto;mix-blend-mode:normal;shape-margin:0;shape-padding:0;text-decoration-color:#000000;text-decoration-line:none;text-decoration-style:solid;text-indent:0;text-orientation:mixed;text-transform:none;white-space:normal"/>
    <path d="m-776.4 873.7v99.219h-19.843a6.6153 6.6153 0 0 0-6.6151 6.6135v19.844h-99.219v13.229h99.219v19.844a6.6153 6.6153 0 0 0 6.6151 6.6136h19.843v99.219h13.229v-99.219h19.844a6.6153 6.6153 0 0 0 6.6151-6.6136v-19.844h99.218v-13.229h-99.218v-19.844a6.6153 6.6153 0 0 0-6.6151-6.6135h-19.844v-99.219zm-13.23 112.45h13.23v13.229h-13.23zm26.459 0h13.229v13.229h-13.229zm-26.459 26.458h13.23v13.229h-13.23zm26.459 0h13.229v13.229h-13.229z" color="#000000" color-rendering="auto" dominant-baseline="auto" image-rendering="auto" opacity="1" solid-color="#000000" stop-color="#000000" style="font-feature-settings:normal;font-variant-alternates:normal;font-variant-caps:normal;font-variant-east-asian:normal;font-variant-ligatures:normal;font-variant-numeric:normal;font-variant-position:normal;font-variation-settings:normal;inline-size:0;isolation:auto;mix-blend-mode:normal;shape-margin:0;shape-padding:0;text-decoration-color:#000000;text-decoration-line:none;text-decoration-style:solid;text-indent:0;text-orientation:mixed;text-transform:none;white-space:normal"/>
   </g>
   <g transform="translate(-924 2756.4)">
    <path d="m-1041 873.7v99.219h-19.843a6.6153 6.6153 0 0 0-6.6151 6.6135v19.844h-99.219v13.229h99.219v19.844a6.6153 6.6153 0 0 0 6.6151 6.6136h19.843v99.219h13.229v-99.219h19.844a6.6153 6.6153 0 0 0 6.6151-6.6136v-19.844h99.218v-13.229h-99.218v-19.844a6.6153 6.6153 0 0 0-6.6151-6.6135h-19.844v-99.219zm-13.23 112.45h13.23v13.229h-13.23zm26.459 0h13.229v13.229h-13.229zm-26.459 26.458h13.23v13.229h-13.23zm26.459 0h13.229v13.229h-13.229z" color="#000000" color-rendering="auto" dominant-baseline="auto" image-rendering="auto" opacity="1" solid-color="#000000" stop-color="#000000" style="font-feature-settings:normal;font-variant-alternates:normal;font-variant-caps:normal;font-variant-east-asian:normal;font-variant-ligatures:normal;font-variant-numeric:normal;font-variant-position:normal;font-variation-settings:normal;inline-size:0;isolation:auto;mix-blend-mode:normal;shape-margin:0;shape-padding:0;text-decoration-color:#000000;text-decoration-line:none;text-decoration-style:solid;text-indent:0;text-orientation:mixed;text-transform:none;white-space:normal"/>
    <path d="m-1041 1138.3v99.219h-19.843a6.6153 6.6153 0 0 0-6.6151 6.6135v19.844h-99.219v13.229h99.219v19.844a6.6153 6.6153 0 0 0 6.6151 6.6136h19.843v99.219h13.229v-99.219h19.844a6.6153 6.6153 0 0 0 6.6151-6.6136v-19.844h99.218v-13.229h-99.218v-19.844a6.6153 6.6153 0 0 0-6.6151-6.6135h-19.844v-99.219zm-13.23 112.45h13.23v13.229h-13.23zm26.459 0h13.229v13.229h-13.229zm-26.459 26.458h13.23v13.229h-13.23zm26.459 0h13.229v13.229h-13.229z" color="#000000" color-rendering="auto" dominant-baseline="auto" image-rendering="auto" opacity="1" solid-color="#000000" stop-color="#000000" style="font-feature-settings:normal;font-variant-alternates:normal;font-variant-caps:normal;font-variant-east-asian:normal;font-variant-ligatures:normal;font-variant-numeric:normal;font-variant-position:normal;font-variation-settings:normal;inline-size:0;isolation:auto;mix-blend-mode:normal;shape-margin:0;shape-padding:0;text-decoration-color:#000000;text-decoration-line:none;text-decoration-style:solid;text-indent:0;text-orientation:mixed;text-transform:none;white-space:normal"/>
    <path d="m-776.4 1138.3v99.219h-19.843a6.6153 6.6153 0 0 0-6.6151 6.6135v19.844h-99.219v13.229h99.219v19.844a6.6153 6.6153 0 0 0 6.6151 6.6136h19.843v99.219h13.229v-99.219h19.844a6.6153 6.6153 0 0 0 6.6151-6.6136v-19.844h99.218v-13.229h-99.218v-19.844a6.6153 6.6153 0 0 0-6.6151-6.6135h-19.844v-99.219zm-13.23 112.45h13.23v13.229h-13.23zm26.459 0h13.229v13.229h-13.229zm-26.459 26.458h13.23v13.229h-13.23zm26.459 0h13.229v13.229h-13.229z" color="#000000" color-rendering="auto" dominant-baseline="auto" image-rendering="auto" opacity="1" solid-color="#000000" stop-color="#000000" style="font-feature-settings:normal;font-variant-alternates:normal;font-variant-caps:normal;font-variant-east-asian:normal;font-variant-ligatures:normal;font-variant-numeric:normal;font-variant-position:normal;font-variation-settings:normal;inline-size:0;isolation:auto;mix-blend-mode:normal;shape-margin:0;shape-padding:0;text-decoration-color:#000000;text-decoration-line:none;text-decoration-style:solid;text-indent:0;text-orientation:mixed;text-transform:none;white-space:normal"/>
    <path d="m-776.4 873.7v99.219h-19.843a6.6153 6.6153 0 0 0-6.6151 6.6135v19.844h-99.219v13.229h99.219v19.844a6.6153 6.6153 0 0 0 6.6151 6.6136h19.843v99.219h13.229v-99.219h19.844a6.6153 6.6153 0 0 0 6.6151-6.6136v-19.844h99.218v-13.229h-99.218v-19.844a6.6153 6.6153 0 0 0-6.6151-6.6135h-19.844v-99.219zm-13.23 112.45h13.23v13.229h-13.23zm26.459 0h13.229v13.229h-13.229zm-26.459 26.458h13.23v13.229h-13.23zm26.459 0h13.229v13.229h-13.229z" color="#000000" color-rendering="auto" dominant-baseline="auto" image-rendering="auto" opacity="1" solid-color="#000000" stop-color="#000000" style="font-feature-settings:normal;font-variant-alternates:normal;font-variant-caps:normal;font-variant-east-asian:normal;font-variant-ligatures:normal;font-variant-numeric:normal;font-variant-position:normal;font-variation-settings:normal;inline-size:0;isolation:auto;mix-blend-mode:normal;shape-margin:0;shape-padding:0;text-decoration-color:#000000;text-decoration-line:none;text-decoration-style:solid;text-indent:0;text-orientation:mixed;text-transform:none;white-space:normal"/>
   </g>
   <g transform="translate(-408.06 2227.2)">
    <path d="m-1027.8 1402.9v99.219h-19.843a6.6153 6.6153 0 0 0-6.6151 6.6135v19.844h-99.219v13.229h99.219v19.844a6.6153 6.6153 0 0 0 6.6151 6.6136h19.843v99.219h13.229v-99.219h19.844a6.6153 6.6153 0 0 0 6.6151-6.6136v-19.844h99.218v-13.229h-99.218v-19.844a6.6153 6.6153 0 0 0-6.6151-6.6135h-19.844v-99.219zm-13.23 112.45h13.23v13.229h-13.23zm26.459 0h13.229v13.229h-13.229zm-26.459 26.458h13.23v13.229h-13.23zm26.459 0h13.229v13.229h-13.229z" color="#000000" color-rendering="auto" dominant-baseline="auto" image-rendering="auto" opacity="1" solid-color="#000000" stop-color="#000000" style="font-feature-settings:normal;font-variant-alternates:normal;font-variant-caps:normal;font-variant-east-asian:normal;font-variant-ligatures:normal;font-variant-numeric:normal;font-variant-position:normal;font-variation-settings:normal;inline-size:0;isolation:auto;mix-blend-mode:normal;shape-margin:0;shape-padding:0;text-decoration-color:#000000;text-decoration-line:none;text-decoration-style:solid;text-indent:0;text-orientation:mixed;text-transform:none;white-space:normal"/>
    <path d="m-1027.8 1667.4v99.219h-19.843a6.6153 6.6153 0 0 0-6.6151 6.6135v19.844h-99.219v13.229h99.219v19.844a6.6153 6.6153 0 0 0 6.6151 6.6136h19.843v99.219h13.229v-99.219h19.844a6.6153 6.6153 0 0 0 6.6151-6.6136v-19.844h99.218v-13.229h-99.218v-19.844a6.6153 6.6153 0 0 0-6.6151-6.6135h-19.844v-99.219zm-13.23 112.45h13.23v13.229h-13.23zm26.459 0h13.229v13.229h-13.229zm-26.459 26.458h13.23v13.229h-13.23zm26.459 0h13.229v13.229h-13.229z" color="#000000" color-rendering="auto" dominant-baseline="auto" image-rendering="auto" opacity="1" solid-color="#000000" stop-color="#000000" style="font-feature-settings:normal;font-variant-alternates:normal;font-variant-caps:normal;font-variant-east-asian:normal;font-variant-ligatures:normal;font-variant-numeric:normal;font-variant-position:normal;font-variation-settings:normal;inline-size:0;isolation:auto;mix-blend-mode:normal;shape-margin:0;shape-padding:0;text-decoration-color:#000000;text-decoration-line:none;text-decoration-style:solid;text-indent:0;text-orientation:mixed;text-transform:none;white-space:normal"/>
    <path d="m-763.17 1667.4v99.219h-19.843a6.6153 6.6153 0 0 0-6.6151 6.6135v19.844h-99.219v13.229h99.219v19.844a6.6153 6.6153 0 0 0 6.6151 6.6136h19.843v99.219h13.229v-99.219h19.844a6.6153 6.6153 0 0 0 6.6151-6.6136v-19.844h99.218v-13.229h-99.218v-19.844a6.6153 6.6153 0 0 0-6.6151-6.6135h-19.844v-99.219zm-13.23 112.45h13.23v13.229h-13.23zm26.459 0h13.229v13.229h-13.229zm-26.459 26.458h13.23v13.229h-13.23zm26.459 0h13.229v13.229h-13.229z" color="#000000" color-rendering="auto" dominant-baseline="auto" image-rendering="auto" opacity="1" solid-color="#000000" stop-color="#000000" style="font-feature-settings:normal;font-variant-alternates:normal;font-variant-caps:normal;font-variant-east-asian:normal;font-variant-ligatures:normal;font-variant-numeric:normal;font-variant-position:normal;font-variation-settings:normal;inline-size:0;isolation:auto;mix-blend-mode:normal;shape-margin:0;shape-padding:0;text-decoration-color:#000000;text-decoration-line:none;text-decoration-style:solid;text-indent:0;text-orientation:mixed;text-transform:none;white-space:normal"/>
    <path d="m-763.17 1402.9v99.219h-19.843a6.6153 6.6153 0 0 0-6.6151 6.6135v19.844h-99.219v13.229h99.219v19.844a6.6153 6.6153 0 0 0 6.6151 6.6136h19.843v99.219h13.229v-99.219h19.844a6.6153 6.6153 0 0 0 6.6151-6.6136v-19.844h99.218v-13.229h-99.218v-19.844a6.6153 6.6153 0 0 0-6.6151-6.6135h-19.844v-99.219zm-13.23 112.45h13.23v13.229h-13.23zm26.459 0h13.229v13.229h-13.229zm-26.459 26.458h13.23v13.229h-13.23zm26.459 0h13.229v13.229h-13.229z" color="#000000" color-rendering="auto" dominant-baseline="auto" image-rendering="auto" opacity="1" solid-color="#000000" stop-color="#000000" style="font-feature-settings:normal;font-variant-alternates:normal;font-variant-caps:normal;font-variant-east-asian:normal;font-variant-ligatures:normal;font-variant-numeric:normal;font-variant-position:normal;font-variation-settings:normal;inline-size:0;isolation:auto;mix-blend-mode:normal;shape-margin:0;shape-padding:0;text-decoration-color:#000000;text-decoration-line:none;text-decoration-style:solid;text-indent:0;text-orientation:mixed;text-transform:none;white-space:normal"/>
   </g>
   <g transform="translate(134.33 2756.4)">
    <path d="m-1041 873.7v99.219h-19.843a6.6153 6.6153 0 0 0-6.6151 6.6135v19.844h-99.219v13.229h99.219v19.844a6.6153 6.6153 0 0 0 6.6151 6.6136h19.843v99.219h13.229v-99.219h19.844a6.6153 6.6153 0 0 0 6.6151-6.6136v-19.844h99.218v-13.229h-99.218v-19.844a6.6153 6.6153 0 0 0-6.6151-6.6135h-19.844v-99.219zm-13.23 112.45h13.23v13.229h-13.23zm26.459 0h13.229v13.229h-13.229zm-26.459 26.458h13.23v13.229h-13.23zm26.459 0h13.229v13.229h-13.229z" color="#000000" color-rendering="auto" dominant-baseline="auto" image-rendering="auto" opacity="1" solid-color="#000000" stop-color="#000000" style="font-feature-settings:normal;font-variant-alternates:normal;font-variant-caps:normal;font-variant-east-asian:normal;font-variant-ligatures:normal;font-variant-numeric:normal;font-variant-position:normal;font-variation-settings:normal;inline-size:0;isolation:auto;mix-blend-mode:normal;shape-margin:0;shape-padding:0;text-decoration-color:#000000;text-decoration-line:none;text-decoration-style:solid;text-indent:0;text-orientation:mixed;text-transform:none;white-space:normal"/>
    <path d="m-1041 1138.3v99.219h-19.843a6.6153 6.6153 0 0 0-6.6151 6.6135v19.844h-99.219v13.229h99.219v19.844a6.6153 6.6153 0 0 0 6.6151 6.6136h19.843v99.219h13.229v-99.219h19.844a6.6153 6.6153 0 0 0 6.6151-6.6136v-19.844h99.218v-13.229h-99.218v-19.844a6.6153 6.6153 0 0 0-6.6151-6.6135h-19.844v-99.219zm-13.23 112.45h13.23v13.229h-13.23zm26.459 0h13.229v13.229h-13.229zm-26.459 26.458h13.23v13.229h-13.23zm26.459 0h13.229v13.229h-13.229z" color="#000000" color-rendering="auto" dominant-baseline="auto" image-rendering="auto" opacity="1" solid-color="#000000" stop-color="#000000" style="font-feature-settings:normal;font-variant-alternates:normal;font-variant-caps:normal;font-variant-east-asian:normal;font-variant-ligatures:normal;font-variant-numeric:normal;font-variant-position:normal;font-variation-settings:normal;inline-size:0;isolation:auto;mix-blend-mode:normal;shape-margin:0;shape-padding:0;text-decoration-color:#000000;text-decoration-line:none;text-decoration-style:solid;text-indent:0;text-orientation:mixed;text-transform:none;white-space:normal"/>
    <path d="m-776.4 1138.3v99.219h-19.843a6.6153 6.6153 0 0 0-6.6151 6.6135v19.844h-99.219v13.229h99.219v19.844a6.6153 6.6153 0 0 0 6.6151 6.6136h19.843v99.219h13.229v-99.219h19.844a6.6153 6.6153 0 0 0 6.6151-6.6136v-19.844h99.218v-13.229h-99.218v-19.844a6.6153 6.6153 0 0 0-6.6151-6.6135h-19.844v-99.219zm-13.23 112.45h13.23v13.229h-13.23zm26.459 0h13.229v13.229h-13.229zm-26.459 26.458h13.23v13.229h-13.23zm26.459 0h13.229v13.229h-13.229z" color="#000000" color-rendering="auto" dominant-baseline="auto" image-rendering="auto" opacity="1" solid-color="#000000" stop-color="#000000" style="font-feature-settings:normal;font-variant-alternates:normal;font-variant-caps:normal;font-variant-east-asian:normal;font-variant-ligatures:normal;font-variant-numeric:normal;font-variant-position:normal;font-variation-settings:normal;inline-size:0;isolation:auto;mix-blend-mode:normal;shape-margin:0;shape-padding:0;text-decoration-color:#000000;text-decoration-line:none;text-decoration-style:solid;text-indent:0;text-orientation:mixed;text-transform:none;white-space:normal"/>
    <path d="m-776.4 873.7v99.219h-19.843a6.6153 6.6153 0 0 0-6.6151 6.6135v19.844h-99.219v13.229h99.219v19.844a6.6153 6.6153 0 0 0 6.6151 6.6136h19.843v99.219h13.229v-99.219h19.844a6.6153 6.6153 0 0 0 6.6151-6.6136v-19.844h99.218v-13.229h-99.218v-19.844a6.6153 6.6153 0 0 0-6.6151-6.6135h-19.844v-99.219zm-13.23 112.45h13.23v13.229h-13.23zm26.459 0h13.229v13.229h-13.229zm-26.459 26.458h13.23v13.229h-13.23zm26.459 0h13.229v13.229h-13.229z" color="#000000" color-rendering="auto" dominant-baseline="auto" image-rendering="auto" opacity="1" solid-color="#000000" stop-color="#000000" style="font-feature-settings:normal;font-variant-alternates:normal;font-variant-caps:normal;font-variant-east-asian:normal;font-variant-ligatures:normal;font-variant-numeric:normal;font-variant-position:normal;font-variation-settings:normal;inline-size:0;isolation:auto;mix-blend-mode:normal;shape-margin:0;shape-padding:0;text-decoration-color:#000000;text-decoration-line:none;text-decoration-style:solid;text-indent:0;text-orientation:mixed;text-transform:none;white-space:normal"/>
   </g>
   <g transform="translate(-394.83 2227.2)">
    <path d="m-1041 873.7v99.219h-19.843a6.6153 6.6153 0 0 0-6.6151 6.6135v19.844h-99.219v13.229h99.219v19.844a6.6153 6.6153 0 0 0 6.6151 6.6136h19.843v99.219h13.229v-99.219h19.844a6.6153 6.6153 0 0 0 6.6151-6.6136v-19.844h99.218v-13.229h-99.218v-19.844a6.6153 6.6153 0 0 0-6.6151-6.6135h-19.844v-99.219zm-13.23 112.45h13.23v13.229h-13.23zm26.459 0h13.229v13.229h-13.229zm-26.459 26.458h13.23v13.229h-13.23zm26.459 0h13.229v13.229h-13.229z" color="#000000" color-rendering="auto" dominant-baseline="auto" image-rendering="auto" opacity="1" solid-color="#000000" stop-color="#000000" style="font-feature-settings:normal;font-variant-alternates:normal;font-variant-caps:normal;font-variant-east-asian:normal;font-variant-ligatures:normal;font-variant-numeric:normal;font-variant-position:normal;font-variation-settings:normal;inline-size:0;isolation:auto;mix-blend-mode:normal;shape-margin:0;shape-padding:0;text-decoration-color:#000000;text-decoration-line:none;text-decoration-style:solid;text-indent:0;text-orientation:mixed;text-transform:none;white-space:normal"/>
    <path d="m-1041 1138.3v99.219h-19.843a6.6153 6.6153 0 0 0-6.6151 6.6135v19.844h-99.219v13.229h99.219v19.844a6.6153 6.6153 0 0 0 6.6151 6.6136h19.843v99.219h13.229v-99.219h19.844a6.6153 6.6153 0 0 0 6.6151-6.6136v-19.844h99.218v-13.229h-99.218v-19.844a6.6153 6.6153 0 0 0-6.6151-6.6135h-19.844v-99.219zm-13.23 112.45h13.23v13.229h-13.23zm26.459 0h13.229v13.229h-13.229zm-26.459 26.458h13.23v13.229h-13.23zm26.459 0h13.229v13.229h-13.229z" color="#000000" color-rendering="auto" dominant-baseline="auto" image-rendering="auto" opacity="1" solid-color="#000000" stop-color="#000000" style="font-feature-settings:normal;font-variant-alternates:normal;font-variant-caps:normal;font-variant-east-asian:normal;font-variant-ligatures:normal;font-variant-numeric:normal;font-variant-position:normal;font-variation-settings:normal;inline-size:0;isolation:auto;mix-blend-mode:normal;shape-margin:0;shape-padding:0;text-decoration-color:#000000;text-decoration-line:none;text-decoration-style:solid;text-indent:0;text-orientation:mixed;text-transform:none;white-space:normal"/>
    <path d="m-776.4 1138.3v99.219h-19.843a6.6153 6.6153 0 0 0-6.6151 6.6135v19.844h-99.219v13.229h99.219v19.844a6.6153 6.6153 0 0 0 6.6151 6.6136h19.843v99.219h13.229v-99.219h19.844a6.6153 6.6153 0 0 0 6.6151-6.6136v-19.844h99.218v-13.229h-99.218v-19.844a6.6153 6.6153 0 0 0-6.6151-6.6135h-19.844v-99.219zm-13.23 112.45h13.23v13.229h-13.23zm26.459 0h13.229v13.229h-13.229zm-26.459 26.458h13.23v13.229h-13.23zm26.459 0h13.229v13.229h-13.229z" color="#000000" color-rendering="auto" dominant-baseline="auto" image-rendering="auto" opacity="1" solid-color="#000000" stop-color="#000000" style="font-feature-settings:normal;font-variant-alternates:normal;font-variant-caps:normal;font-variant-east-asian:normal;font-variant-ligatures:normal;font-variant-numeric:normal;font-variant-position:normal;font-variation-settings:normal;inline-size:0;isolation:auto;mix-blend-mode:normal;shape-margin:0;shape-padding:0;text-decoration-color:#000000;text-decoration-line:none;text-decoration-style:solid;text-indent:0;text-orientation:mixed;text-transform:none;white-space:normal"/>
    <path d="m-776.4 873.7v99.219h-19.843a6.6153 6.6153 0 0 0-6.6151 6.6135v19.844h-99.219v13.229h99.219v19.844a6.6153 6.6153 0 0 0 6.6151 6.6136h19.843v99.219h13.229v-99.219h19.844a6.6153 6.6153 0 0 0 6.6151-6.6136v-19.844h99.218v-13.229h-99.218v-19.844a6.6153 6.6153 0 0 0-6.6151-6.6135h-19.844v-99.219zm-13.23 112.45h13.23v13.229h-13.23zm26.459 0h13.229v13.229h-13.229zm-26.459 26.458h13.23v13.229h-13.23zm26.459 0h13.229v13.229h-13.229z" color="#000000" color-rendering="auto" dominant-baseline="auto" image-rendering="auto" opacity="1" solid-color="#000000" stop-color="#000000" style="font-feature-settings:normal;font-variant-alternates:normal;font-variant-caps:normal;font-variant-east-asian:normal;font-variant-ligatures:normal;font-variant-numeric:normal;font-variant-position:normal;font-variation-settings:normal;inline-size:0;isolation:auto;mix-blend-mode:normal;shape-margin:0;shape-padding:0;text-decoration-color:#000000;text-decoration-line:none;text-decoration-style:solid;text-indent:0;text-orientation:mixed;text-transform:none;white-space:normal"/>
   </g>
  </g>
 </g>
</svg>
