<?xml version="1.0" encoding="UTF-8" standalone="no"?>
<svg
   xmlns:dc="http://purl.org/dc/elements/1.1/"
   xmlns:cc="http://creativecommons.org/ns#"
   xmlns:rdf="http://www.w3.org/1999/02/22-rdf-syntax-ns#"
   xmlns:svg="http://www.w3.org/2000/svg"
   xmlns="http://www.w3.org/2000/svg"
   xmlns:sodipodi="http://sodipodi.sourceforge.net/DTD/sodipodi-0.dtd"
   xmlns:inkscape="http://www.inkscape.org/namespaces/inkscape"
   width="59.441456mm"
   height="18.841963mm"
   viewBox="0 0 59.441456 18.841963"
   version="1.1"
   id="svg3942"
   inkscape:version="1.0.2 (e86c870879, 2021-01-15)"
   sodipodi:docname="logo.svg">
  <defs
     id="defs3936">
    <clipPath
       clipPathUnits="userSpaceOnUse"
       id="clipPath1557">
      <path
         d="m 15843.9,9033.18 -227.9,123.99 c 138.2,-75.16 302,-106.94 477.5,-82.27 l 228,-123.99 c -175.6,-24.67 -339.4,7.11 -477.6,82.27 z"
         id="path1555" />
    </clipPath>
    <clipPath
       clipPathUnits="userSpaceOnUse"
       id="clipPath1567">
      <path
         d="m 16574.6,10925.2 228,-124 c 250.3,-136.2 416.5,-414.9 415.9,-758.2 -1,-532.76 -403.4,-1022.72 -897,-1092.09 l -228,123.99 c 493.6,69.37 896.1,559.33 897.1,1092.1 0.6,343.3 -165.6,622 -416,758.2 z"
         id="path1565" />
    </clipPath>
    <clipPath
       clipPathUnits="userSpaceOnUse"
       id="clipPath1583">
      <path
         d="m 15589.9,8827.96 -227.9,123.99 c -67.2,48.82 -128.3,106.27 -182.1,171.32 l 228,-123.99 c 53.8,-65.06 114.8,-122.51 182,-171.32 z"
         id="path1581" />
    </clipPath>
    <clipPath
       clipPathUnits="userSpaceOnUse"
       id="clipPath1593">
      <path
         d="m 16502,11191.7 -228,124 c 86.7,-2 170.3,-14.8 249.6,-37.2 l 227.9,-124 c -79.3,22.4 -162.9,35.2 -249.5,37.2 z"
         id="path1591" />
    </clipPath>
    <clipPath
       clipPathUnits="userSpaceOnUse"
       id="clipPath1611">
      <path
         d="m 15231.5,9303.98 -228,123.99 c -30.9,81.32 -53.5,168.38 -66.4,260.08 l 227.9,-123.99 c 13,-91.7 35.5,-178.77 66.5,-260.08 z"
         id="path1609" />
    </clipPath>
    <clipPath
       clipPathUnits="userSpaceOnUse"
       id="clipPath1621">
      <path
         d="m 15899.3,11034.8 -227.9,124 c 79.5,44.7 163.1,81 249.8,107.3 l 227.9,-124 c -86.7,-26.3 -170.3,-62.6 -249.8,-107.3 z"
         id="path1619" />
    </clipPath>
    <clipPath
       clipPathUnits="userSpaceOnUse"
       id="clipPath1631">
      <path
         d="m 15165.7,9944.91 -227.9,123.99 c 13.3,95.4 36.2,188.8 67.4,278.9 l 228,-124 c -31.3,-90.1 -54.2,-183.5 -67.5,-278.89 z"
         id="path1629" />
    </clipPath>
    <clipPath
       clipPathUnits="userSpaceOnUse"
       id="clipPath1641">
      <path
         d="m 15410.8,10578.3 -227.9,124 c 54,80.2 115.3,154.8 182.7,222.5 l 228,-124 c -67.4,-67.7 -128.7,-142.3 -182.8,-222.5 z"
         id="path1639" />
    </clipPath>
    <clipPath
       clipPathUnits="userSpaceOnUse"
       id="clipPath1557-8">
      <path
         d="m 15843.9,9033.18 -227.9,123.99 c 138.2,-75.16 302,-106.94 477.5,-82.27 l 228,-123.99 c -175.6,-24.67 -339.4,7.11 -477.6,82.27 z"
         id="path1555-9" />
    </clipPath>
    <clipPath
       clipPathUnits="userSpaceOnUse"
       id="clipPath1567-7">
      <path
         d="m 16574.6,10925.2 228,-124 c 250.3,-136.2 416.5,-414.9 415.9,-758.2 -1,-532.76 -403.4,-1022.72 -897,-1092.09 l -228,123.99 c 493.6,69.37 896.1,559.33 897.1,1092.1 0.6,343.3 -165.6,622 -416,758.2 z"
         id="path1565-3" />
    </clipPath>
    <clipPath
       clipPathUnits="userSpaceOnUse"
       id="clipPath1583-6">
      <path
         d="m 15589.9,8827.96 -227.9,123.99 c -67.2,48.82 -128.3,106.27 -182.1,171.32 l 228,-123.99 c 53.8,-65.06 114.8,-122.51 182,-171.32 z"
         id="path1581-1" />
    </clipPath>
    <clipPath
       clipPathUnits="userSpaceOnUse"
       id="clipPath1593-2">
      <path
         d="m 16502,11191.7 -228,124 c 86.7,-2 170.3,-14.8 249.6,-37.2 l 227.9,-124 c -79.3,22.4 -162.9,35.2 -249.5,37.2 z"
         id="path1591-9" />
    </clipPath>
    <clipPath
       clipPathUnits="userSpaceOnUse"
       id="clipPath1611-3">
      <path
         d="m 15231.5,9303.98 -228,123.99 c -30.9,81.32 -53.5,168.38 -66.4,260.08 l 227.9,-123.99 c 13,-91.7 35.5,-178.77 66.5,-260.08 z"
         id="path1609-1" />
    </clipPath>
    <clipPath
       clipPathUnits="userSpaceOnUse"
       id="clipPath1621-9">
      <path
         d="m 15899.3,11034.8 -227.9,124 c 79.5,44.7 163.1,81 249.8,107.3 l 227.9,-124 c -86.7,-26.3 -170.3,-62.6 -249.8,-107.3 z"
         id="path1619-4" />
    </clipPath>
    <clipPath
       clipPathUnits="userSpaceOnUse"
       id="clipPath1631-7">
      <path
         d="m 15165.7,9944.91 -227.9,123.99 c 13.3,95.4 36.2,188.8 67.4,278.9 l 228,-124 c -31.3,-90.1 -54.2,-183.5 -67.5,-278.89 z"
         id="path1629-8" />
    </clipPath>
    <clipPath
       clipPathUnits="userSpaceOnUse"
       id="clipPath1641-4">
      <path
         d="m 15410.8,10578.3 -227.9,124 c 54,80.2 115.3,154.8 182.7,222.5 l 228,-124 c -67.4,-67.7 -128.7,-142.3 -182.8,-222.5 z"
         id="path1639-5" />
    </clipPath>
  </defs>
  <sodipodi:namedview
     id="base"
     pagecolor="#ffffff"
     bordercolor="#666666"
     borderopacity="1.0"
     inkscape:pageopacity="0.0"
     inkscape:pageshadow="2"
     inkscape:zoom="2.8976008"
     inkscape:cx="165.38525"
     inkscape:cy="91.088334"
     inkscape:document-units="mm"
     inkscape:current-layer="layer1"
     inkscape:document-rotation="0"
     showgrid="false"
     inkscape:window-width="1920"
     inkscape:window-height="1000"
     inkscape:window-x="0"
     inkscape:window-y="0"
     inkscape:window-maximized="1" />
  <metadata
     id="metadata3939">
    <rdf:RDF>
      <cc:Work
         rdf:about="">
        <dc:format>image/svg+xml</dc:format>
        <dc:type
           rdf:resource="http://purl.org/dc/dcmitype/StillImage" />
        <dc:title></dc:title>
      </cc:Work>
    </rdf:RDF>
  </metadata>
  <g
     inkscape:label="Layer 1"
     inkscape:groupmode="layer"
     id="layer1"
     transform="translate(-148.05629,-131.91983)">
    <g
       id="g5732">
      <path
         d="m 161.14085,149.3846 -1.3332,-0.72534 -0.97869,-1.14378 1.3332,0.72533 0.97869,1.14379"
         style="fill:#100f0d;fill-opacity:1;fill-rule:nonzero;stroke:none;stroke-width:0.0352778"
         id="path1543" />
      <path
         d="m 164.45777,139.63707 -1.3332,-0.72539 1.51747,0.0632 1.33379,0.72539 -1.51806,-0.0632"
         style="fill:#3c3b3d;fill-opacity:1;fill-rule:nonzero;stroke:none;stroke-width:0.0352778"
         id="path1545" />
      <path
         d="m 156.8897,150.76179 -1.33378,-0.72533 -0.25272,-1.60277 1.33378,0.72539 0.25272,1.60271"
         style="fill:#100f0d;fill-opacity:1;fill-rule:nonzero;stroke:none;stroke-width:0.0352778"
         id="path1547" />
      <path
         d="m 163.03741,136.33302 -1.33321,-0.7248 1.44728,-0.78507 1.3332,0.7254 -1.44727,0.78447"
         style="fill:#af1319;fill-opacity:1;fill-rule:nonzero;stroke:none;stroke-width:0.0352778"
         id="path1549" />
      <g
         id="g1551"
         transform="matrix(0.00584994,0,0,-0.00584994,62.192594,199.71832)"
         style="stroke-width:6.03045">
        <g
           id="g1553"
           clip-path="url(#clipPath1557-8)"
           style="stroke-width:6.03045">
          <path
             d="m 15843.9,9033.18 -227.9,123.99 c 138.2,-75.16 302,-106.94 477.5,-82.27 l 228,-123.99 c -175.6,-24.67 -339.4,7.11 -477.6,82.27"
             style="fill:#3c3b3d;fill-opacity:1;fill-rule:nonzero;stroke:none;stroke-width:6.03045"
             id="path1559" />
        </g>
      </g>
      <g
         id="g1561"
         transform="matrix(0.00584994,0,0,-0.00584994,62.192594,199.71832)"
         style="stroke-width:6.03045">
        <g
           id="g1563"
           clip-path="url(#clipPath1567-7)"
           style="stroke-width:6.03045">
          <path
             d="m 16321.5,8950.91 -228,123.99 c 493.6,69.37 896.1,559.33 897.1,1092.1 0.6,343.3 -165.6,622 -416,758.2 l 228,-124 c 250.3,-136.2 416.5,-414.9 415.9,-758.2 -1,-532.76 -403.4,-1022.72 -897,-1092.09"
             style="fill:#100f0d;fill-opacity:1;fill-rule:nonzero;stroke:none;stroke-width:6.03045"
             id="path1569" />
        </g>
      </g>
      <path
         d="m 152.8509,149.71184 -1.3332,-0.72533 0.5417,-1.63658 1.33321,0.72533 -0.54171,1.63658"
         style="fill:#3c3b3d;fill-opacity:1;fill-rule:nonzero;stroke:none;stroke-width:0.0352778"
         id="path1571" />
      <path
         d="m 161.17127,133.04594 -1.33378,-0.72539 1.34314,0.64876 1.33321,0.72539 -1.34257,-0.64876"
         style="fill:#a11117;fill-opacity:1;fill-rule:nonzero;stroke:none;stroke-width:0.0352778"
         id="path1573" />
      <path
         d="m 160.1879,134.46514 -1.3332,-0.7254 0.98279,-1.41919 1.33378,0.72539 -0.98337,1.4192"
         style="fill:#9f1116;fill-opacity:1;fill-rule:nonzero;stroke:none;stroke-width:0.0352778"
         id="path1575" />
      <g
         id="g1577"
         transform="matrix(0.00584994,0,0,-0.00584994,62.192594,199.71832)"
         style="stroke-width:6.03045">
        <g
           id="g1579"
           clip-path="url(#clipPath1583-6)"
           style="stroke-width:6.03045">
          <path
             d="m 15589.9,8827.96 -227.9,123.99 c -67.2,48.82 -128.3,106.27 -182.1,171.32 l 228,-123.99 c 53.8,-65.06 114.8,-122.51 182,-171.32"
             style="fill:#100f0d;fill-opacity:1;fill-rule:nonzero;stroke:none;stroke-width:6.03045"
             id="path1585" />
        </g>
      </g>
      <g
         id="g1587"
         transform="matrix(0.00584994,0,0,-0.00584994,62.192594,199.71832)"
         style="stroke-width:6.03045">
        <g
           id="g1589"
           clip-path="url(#clipPath1593-2)"
           style="stroke-width:6.03045">
          <path
             d="m 16502,11191.7 -228,124 c 86.7,-2 170.3,-14.8 249.6,-37.2 l 227.9,-124 c -79.3,22.4 -162.9,35.2 -249.5,37.2"
             style="fill:#a91318;fill-opacity:1;fill-rule:nonzero;stroke:none;stroke-width:6.03045"
             id="path1595" />
        </g>
      </g>
      <path
         d="m 150.88006,147.85799 -1.33321,-0.72533 -0.77336,-1.34198 1.3332,0.72534 0.77337,1.34197"
         style="fill:#100f0d;fill-opacity:1;fill-rule:nonzero;stroke:none;stroke-width:0.0352778"
         id="path1597" />
      <path
         d="m 150.10669,146.51602 -1.3332,-0.72534 1.18871,-1.22544 1.33379,0.72533 -1.1893,1.22545"
         style="fill:#3c3b3d;fill-opacity:1;fill-rule:nonzero;stroke:none;stroke-width:0.0352778"
         id="path1599" />
      <path
         d="m 156.92305,132.86342 -1.33379,-0.72539 1.55257,-0.2182 1.33321,0.72539 -1.55199,0.2182"
         style="fill:#b11419;fill-opacity:1;fill-rule:nonzero;stroke:none;stroke-width:0.0352778"
         id="path1601" />
      <path
         d="m 156.66389,134.53768 -1.3332,-0.7254 0.25857,-1.67425 1.33379,0.72539 -0.25916,1.67426"
         style="fill:#8d0f13;fill-opacity:1;fill-rule:nonzero;stroke:none;stroke-width:0.0352778"
         id="path1603" />
      <g
         id="g1605"
         transform="matrix(0.00584994,0,0,-0.00584994,62.192594,199.71832)"
         style="stroke-width:6.03045">
        <g
           id="g1607"
           clip-path="url(#clipPath1611-3)"
           style="stroke-width:6.03045">
          <path
             d="m 15231.5,9303.98 -228,123.99 c -30.9,81.32 -53.5,168.38 -66.4,260.08 l 227.9,-123.99 c 13,-91.7 35.5,-178.77 66.5,-260.08"
             style="fill:#100f0d;fill-opacity:1;fill-rule:nonzero;stroke:none;stroke-width:6.03045"
             id="path1613" />
        </g>
      </g>
      <g
         id="g1615"
         transform="matrix(0.00584994,0,0,-0.00584994,62.192594,199.71832)"
         style="stroke-width:6.03045">
        <g
           id="g1617"
           clip-path="url(#clipPath1621-9)"
           style="stroke-width:6.03045">
          <path
             d="m 15899.3,11034.8 -227.9,124 c 79.5,44.7 163.1,81 249.8,107.3 l 227.9,-124 c -86.7,-26.3 -170.3,-62.6 -249.8,-107.3"
             style="fill:#a91318;fill-opacity:1;fill-rule:nonzero;stroke:none;stroke-width:6.03045"
             id="path1623" />
        </g>
      </g>
      <g
         id="g1625"
         transform="matrix(0.00584994,0,0,-0.00584994,62.192594,199.71832)"
         style="stroke-width:6.03045">
        <g
           id="g1627"
           clip-path="url(#clipPath1631-7)"
           style="stroke-width:6.03045">
          <path
             d="m 15165.7,9944.91 -227.9,123.99 c 13.3,95.4 36.2,188.8 67.4,278.9 l 228,-124 c -31.3,-90.1 -54.2,-183.5 -67.5,-278.89"
             style="fill:#a91318;fill-opacity:1;fill-rule:nonzero;stroke:none;stroke-width:6.03045"
             id="path1633" />
        </g>
      </g>
      <g
         id="g1635"
         transform="matrix(0.00584994,0,0,-0.00584994,62.192594,199.71832)"
         style="stroke-width:6.03045">
        <g
           id="g1637"
           clip-path="url(#clipPath1641-4)"
           style="stroke-width:6.03045">
          <path
             d="m 15410.8,10578.3 -227.9,124 c 54,80.2 115.3,154.8 182.7,222.5 l 228,-124 c -67.4,-67.7 -128.7,-142.3 -182.8,-222.5"
             style="fill:#a91318;fill-opacity:1;fill-rule:nonzero;stroke:none;stroke-width:6.03045"
             id="path1643" />
        </g>
      </g>
      <path
         d="m 149.38949,143.70629 -1.3332,-0.72533 0.003,-1.67566 1.33378,0.72533 -0.004,1.67566"
         style="fill:#8a0e12;fill-opacity:1;fill-rule:nonzero;stroke:none;stroke-width:0.0352778"
         id="path1645" />
      <path
         d="m 149.393,142.03063 -1.33379,-0.72533 1.51865,-0.48947 1.3332,0.72534 -1.51806,0.48946"
         style="fill:#b21419;fill-opacity:1;fill-rule:nonzero;stroke:none;stroke-width:0.0352778"
         id="path1647" />
      <path
         d="m 153.41425,136.53426 -1.33379,-0.72539 -0.53585,-1.4853 1.3332,0.72539 0.53644,1.4853"
         style="fill:#870e12;fill-opacity:1;fill-rule:nonzero;stroke:none;stroke-width:0.0352778"
         id="path1649" />
      <path
         d="m 152.87781,135.04896 -1.3332,-0.72539 1.34607,-1.02667 1.3332,0.7254 -1.34607,1.02666"
         style="fill:#ab1318;fill-opacity:1;fill-rule:nonzero;stroke:none;stroke-width:0.0352778"
         id="path1651" />
      <path
         d="m 151.30593,139.90968 -1.33379,-0.72539 -1.18461,-0.89212 1.3332,0.72539 1.1852,0.89212"
         style="fill:#870e12;fill-opacity:1;fill-rule:nonzero;stroke:none;stroke-width:0.0352778"
         id="path1653" />
      <path
         d="m 150.89936,137.45797 -1.3332,-0.7254 1.44552,0.37791 1.3332,0.72539 -1.44552,-0.3779"
         style="fill:#a81318;fill-opacity:1;fill-rule:nonzero;stroke:none;stroke-width:0.0352778"
         id="path1655" />
      <path
         d="m 150.12073,139.01756 -1.3332,-0.72539 0.77863,-1.5596 1.3332,0.7254 -0.77863,1.55959"
         style="fill:#991015;fill-opacity:1;fill-rule:nonzero;stroke:none;stroke-width:0.0352778"
         id="path1657" />
      <path
         d="m 157.67242,147.35601 c 2.88754,-0.40581 5.24155,-3.27205 5.2474,-6.38866 0.006,-3.11685 -2.3388,-5.32228 -5.22634,-4.91629 -2.88811,0.4054 -5.24213,3.27129 -5.24798,6.38837 -0.006,3.11661 2.33881,5.32245 5.22692,4.91658 m 8.2999,-5.98028 -1.51864,0.48953 c -0.0778,0.55802 -0.21119,1.1047 -0.39429,1.63155 l 1.18461,0.89176 -0.77862,1.56012 -1.44494,-0.37837 c -0.31648,0.46928 -0.67567,0.90598 -1.06937,1.30219 l 0.53586,1.48513 -1.34608,1.02696 -0.97869,-1.14379 c -0.46449,0.26202 -0.95413,0.47391 -1.46132,0.62811 l -0.25856,1.67472 -1.55258,0.21815 -0.25272,-1.60271 c -0.50719,-0.0118 -0.99566,-0.0862 -1.46014,-0.21762 l -0.98338,1.41949 -1.34256,-0.64911 0.54171,-1.63658 c -0.39312,-0.28553 -0.74997,-0.62161 -1.06469,-1.00221 l -1.44786,0.78494 -0.77337,-1.34197 1.1893,-1.22545 c -0.18135,-0.47566 -0.31298,-0.98501 -0.38903,-1.52145 l -1.51747,-0.0628 0.004,-1.67566 1.51806,-0.48946 c 0.0778,-0.55803 0.21176,-1.10441 0.39487,-1.63149 l -1.1852,-0.89212 0.77863,-1.55959 1.44552,0.3779 c 0.31648,-0.46916 0.67508,-0.90557 1.06937,-1.30161 l -0.53644,-1.4853 1.34607,-1.02666 0.9787,1.14308 c 0.46506,-0.2615 0.95412,-0.47385 1.46131,-0.6277 l 0.25915,-1.67426 1.55199,-0.2182 0.25331,1.6023 c 0.5066,0.0117 0.99565,0.0866 1.45956,0.21762 l 0.98337,-1.4192 1.34256,0.64876 -0.5417,1.63681 c 0.39311,0.28548 0.75054,0.62127 1.06527,1.00151 l 1.44728,-0.78447 0.77336,1.34197 -1.18871,1.22557 c 0.18135,0.4756 0.31297,0.98454 0.38844,1.52098 l 1.51806,0.0632 -0.004,1.67548"
         style="fill:#babab7;fill-opacity:1;fill-rule:nonzero;stroke:none;stroke-width:0.0352778"
         id="path1659" />
      <path
         d="m 152.82809,140.404 1.02725,-0.34573 1.64324,0.3352 -1.02724,0.34573 -1.64325,-0.3352"
         style="fill:#848786;fill-opacity:1;fill-rule:nonzero;stroke:none;stroke-width:0.0352778"
         id="path1661" />
      <path
         d="m 152.8784,141.13466 1.02725,-0.34573 c 0.26617,2.18501 1.53093,4.19897 3.07472,5.01515 l -1.02783,0.34597 c -1.54321,-0.81613 -2.80856,-2.83009 -3.07414,-5.01539"
         style="fill:#babab7;fill-opacity:1;fill-rule:nonzero;stroke:none;stroke-width:0.0352778"
         id="path1663" />
      <path
         d="m 155.95254,146.15005 1.02783,-0.34597 c 0.203,0.10735 0.41067,0.19398 0.62185,0.25751 l -1.02725,0.34603 c -0.21118,-0.0636 -0.41944,-0.15023 -0.62243,-0.25757"
         style="fill:#babab7;fill-opacity:1;fill-rule:nonzero;stroke:none;stroke-width:0.0352778"
         id="path1665" />
      <path
         d="m 155.02181,141.01766 1.02784,-0.34632 0.0269,0.39429 -1.02725,0.34579 -0.0275,-0.39376"
         style="fill:#3c3b3d;fill-opacity:1;fill-rule:nonzero;stroke:none;stroke-width:0.0352778"
         id="path1667" />
      <path
         d="m 155.04931,141.41142 1.02725,-0.34579 0.29016,0.0591 -1.02725,0.34591 -0.29016,-0.0592"
         style="fill:#848786;fill-opacity:1;fill-rule:nonzero;stroke:none;stroke-width:0.0352778"
         id="path1669" />
      <path
         d="m 154.43214,140.17702 1.02784,-0.34632 1.05123,0.2147 -1.02725,0.34631 -1.05182,-0.21469"
         style="fill:#848786;fill-opacity:1;fill-rule:nonzero;stroke:none;stroke-width:0.0352778"
         id="path1671" />
      <path
         d="m 156.46675,143.07912 1.02784,-0.34603 0.0275,0.39412 -1.02783,0.34596 -0.0275,-0.39405"
         style="fill:#3c3b3d;fill-opacity:1;fill-rule:nonzero;stroke:none;stroke-width:0.0352778"
         id="path1673" />
      <path
         d="m 156.95931,144.28824 1.02784,-0.34602 0.15385,2.22935 -1.02725,0.34597 -0.15444,-2.2293"
         style="fill:#3c3b3d;fill-opacity:1;fill-rule:nonzero;stroke:none;stroke-width:0.0352778"
         id="path1675" />
      <path
         d="m 156.49425,143.47317 1.02783,-0.34596 0.29016,0.0593 -1.02725,0.34596 -0.29074,-0.0593"
         style="fill:#848786;fill-opacity:1;fill-rule:nonzero;stroke:none;stroke-width:0.0352778"
         id="path1677" />
      <path
         d="m 155.4588,140.02492 1.02725,-0.34573 0.27027,0.055 -1.02783,0.34632 -0.26969,-0.0556"
         style="fill:#848786;fill-opacity:1;fill-rule:nonzero;stroke:none;stroke-width:0.0352778"
         id="path1679" />
      <path
         d="m 156.0479,140.86614 1.02783,-0.34573 0.0778,1.12571 -1.02783,0.34602 -0.0778,-1.126"
         style="fill:#3c3b3d;fill-opacity:1;fill-rule:nonzero;stroke:none;stroke-width:0.0352778"
         id="path1681" />
      <path
         d="m 157.11375,146.51754 1.02725,-0.34597 c 0.36738,0.0387 0.7137,-3.3e-4 1.0331,-0.10787 l -1.02783,0.34602 c -0.31882,0.10741 -0.66572,0.14649 -1.03252,0.10782"
         style="fill:#babab7;fill-opacity:1;fill-rule:nonzero;stroke:none;stroke-width:0.0352778"
         id="path1683" />
      <path
         d="m 154.85743,136.61792 1.02784,-0.34632 c -1.11149,0.3744 -1.8872,1.57831 -2.01297,3.2122 l -1.02725,0.34573 c 0.12519,-1.63388 0.90089,-2.8378 2.01238,-3.21161"
         style="fill:#babab7;fill-opacity:1;fill-rule:nonzero;stroke:none;stroke-width:0.0352778"
         id="path1685" />
      <path
         d="m 152.84505,139.82953 1.02725,-0.34573 c -0.014,0.18603 -0.0199,0.37791 -0.017,0.57447 l -1.02725,0.34573 c -0.004,-0.19656 0.002,-0.38844 0.017,-0.57447"
         style="fill:#babab7;fill-opacity:1;fill-rule:nonzero;stroke:none;stroke-width:0.0352778"
         id="path1687" />
      <path
         d="m 156.1257,141.99214 1.02783,-0.34602 0.83011,0.16935 -1.02725,0.34603 -0.83069,-0.16936"
         style="fill:#848786;fill-opacity:1;fill-rule:nonzero;stroke:none;stroke-width:0.0352778"
         id="path1689" />
      <path
         d="m 157.2758,142.94679 1.02725,-0.34596 0.0989,1.42604 -1.02783,0.34596 -0.0983,-1.42604"
         style="fill:#3c3b3d;fill-opacity:1;fill-rule:nonzero;stroke:none;stroke-width:0.0352778"
         id="path1691" />
      <path
         d="m 156.2193,139.49492 1.02725,-0.34573 0.0275,0.3937 -1.02783,0.34573 -0.0269,-0.3937"
         style="fill:#3c3b3d;fill-opacity:1;fill-rule:nonzero;stroke:none;stroke-width:0.0352778"
         id="path1693" />
      <path
         d="m 155.63021,138.65428 1.02725,-0.34632 0.41417,0.0848 -1.02725,0.34573 -0.41417,-0.0842"
         style="fill:#848786;fill-opacity:1;fill-rule:nonzero;stroke:none;stroke-width:0.0352778"
         id="path1695" />
      <path
         d="m 156.24621,139.88862 1.02783,-0.34573 0.29016,0.0591 -1.02725,0.34573 -0.29074,-0.0591"
         style="fill:#848786;fill-opacity:1;fill-rule:nonzero;stroke:none;stroke-width:0.0352778"
         id="path1697" />
      <path
         d="m 157.52032,142.6361 1.02725,-0.34602 0.0252,0.36574 -1.02725,0.34602 -0.0252,-0.36574"
         style="fill:#3c3b3d;fill-opacity:1;fill-rule:nonzero;stroke:none;stroke-width:0.0352778"
         id="path1699" />
      <path
         d="m 157.66482,141.55638 1.02725,-0.34567 0.0275,0.39376 -1.02783,0.34602 -0.0269,-0.39411"
         style="fill:#3c3b3d;fill-opacity:1;fill-rule:nonzero;stroke:none;stroke-width:0.0352778"
         id="path1701" />
      <path
         d="m 157.09679,140.35954 1.02725,-0.34632 0.26968,0.055 -1.02725,0.34632 -0.26968,-0.055"
         style="fill:#848786;fill-opacity:1;fill-rule:nonzero;stroke:none;stroke-width:0.0352778"
         id="path1703" />
      <path
         d="m 157.36647,140.41453 1.02725,-0.34632 0.0257,0.36621 -1.02783,0.34632 -0.0252,-0.36621"
         style="fill:#3c3b3d;fill-opacity:1;fill-rule:nonzero;stroke:none;stroke-width:0.0352778"
         id="path1705" />
      <path
         d="m 157.69173,141.95049 1.02783,-0.34602 0.29016,0.0593 -1.02725,0.34603 -0.29074,-0.0593"
         style="fill:#848786;fill-opacity:1;fill-rule:nonzero;stroke:none;stroke-width:0.0352778"
         id="path1707" />
      <path
         d="m 156.99793,138.93332 1.02783,-0.34573 0.0983,1.42563 -1.02725,0.34632 -0.0989,-1.42622"
         style="fill:#3c3b3d;fill-opacity:1;fill-rule:nonzero;stroke:none;stroke-width:0.0352778"
         id="path1709" />
      <path
         d="m 156.58316,138.8485 1.02784,-0.34573 0.41476,0.0848 -1.02783,0.34573 -0.41477,-0.0848"
         style="fill:#848786;fill-opacity:1;fill-rule:nonzero;stroke:none;stroke-width:0.0352778"
         id="path1711" />
      <path
         d="m 154.61524,135.89662 1.02784,-0.34573 c 0.45395,-0.15327 0.95705,-0.18545 1.4929,-0.0761 l -1.02783,0.34573 c -0.53527,-0.10881 -1.03837,-0.0766 -1.49291,0.0761"
         style="fill:#23256e;fill-opacity:1;fill-rule:nonzero;stroke:none;stroke-width:0.0352778"
         id="path1713" />
      <path
         d="m 156.42931,136.61967 1.02725,-0.34573 0.15444,2.22883 -1.02784,0.34573 -0.15385,-2.22883"
         style="fill:#3c3b3d;fill-opacity:1;fill-rule:nonzero;stroke:none;stroke-width:0.0352778"
         id="path1715" />
      <path
         d="m 158.53237,142.28803 1.02783,-0.34596 0.0392,0.56253 -1.02783,0.34596 -0.0392,-0.56253"
         style="fill:#3c3b3d;fill-opacity:1;fill-rule:nonzero;stroke:none;stroke-width:0.0352778"
         id="path1717" />
      <path
         d="m 158.44345,140.99484 1.02725,-0.34573 0.0392,0.56218 -1.02783,0.34632 -0.0386,-0.56277"
         style="fill:#3c3b3d;fill-opacity:1;fill-rule:nonzero;stroke:none;stroke-width:0.0352778"
         id="path1719" />
      <path
         d="m 157.39163,140.78074 1.02783,-0.34632 1.05124,0.21469 -1.02725,0.34573 -1.05182,-0.2141"
         style="fill:#848786;fill-opacity:1;fill-rule:nonzero;stroke:none;stroke-width:0.0352778"
         id="path1721" />
      <path
         d="m 158.48206,141.55761 1.02783,-0.34632 1.64383,0.33561 -1.02783,0.34597 -1.64383,-0.33526"
         style="fill:#848786;fill-opacity:1;fill-rule:nonzero;stroke:none;stroke-width:0.0352778"
         id="path1723" />
      <path
         d="m 156.2193,139.49492 0.0269,0.3937 0.29074,0.0591 -0.0275,-0.39311 -0.29015,-0.0597 m -0.90733,1.58182 -0.29016,-0.0591 0.0275,0.39376 0.29016,0.0592 -0.0275,-0.39388 m 2.64301,0.5389 -0.29016,-0.0593 0.0269,0.39411 0.29074,0.0593 -0.0275,-0.39411 m -1.16999,1.91679 -0.0275,-0.39405 -0.29074,-0.0593 0.0275,0.39405 0.29074,0.0593 m 0.0936,-2.49722 -0.83069,-0.16907 0.0778,1.126 0.83069,0.16936 -0.0778,-1.12629 m -0.30362,5.37241 -0.15443,-2.22935 -0.41418,-0.0845 -0.0989,-1.42598 -0.27027,-0.0551 -0.0252,-0.36573 -1.05123,-0.21446 -0.0392,-0.56253 -1.64324,-0.33526 c 0.30068,2.47271 1.88075,4.72605 3.69657,5.27296 m -0.68502,-9.89793 c -1.79067,-0.18895 -3.09989,1.47536 -3.06186,3.89431 l 1.64325,0.3352 -0.0392,-0.56218 1.05182,0.21469 -0.0252,-0.36679 0.26969,0.0556 -0.0983,-1.42622 0.41417,0.0842 -0.15443,-2.22883 m 1.2238,10.00785 c 1.79126,0.18878 3.09989,-1.4753 3.06245,-3.89419 l -1.64383,-0.33532 0.0392,0.56253 -1.05124,-0.21446 0.0252,0.36574 -0.26968,-0.055 0.0983,1.42604 -0.41477,-0.0846 0.15444,2.2293 m -0.68444,-9.89787 0.15385,2.22883 0.41477,0.0848 0.0989,1.42622 0.26968,0.055 0.0252,0.36621 1.05182,0.2141 0.0386,0.56277 1.64383,0.33526 c -0.30127,-2.47283 -1.88076,-4.72681 -3.69658,-5.2732 m -0.32116,-0.7991 c 2.31482,0.47209 4.37459,3.40993 4.59162,6.54948 0.21703,3.13884 -1.4894,5.30876 -3.80422,4.83667 -2.31482,-0.47215 -4.37459,-3.4104 -4.59162,-6.54942 -0.21703,-3.13908 1.4894,-5.30882 3.80422,-4.83673"
         style="fill:#100f0d;fill-opacity:1;fill-rule:nonzero;stroke:none;stroke-width:0.0352778"
         id="path1725" />
      <path
         d="m 156.10815,135.82057 1.02783,-0.34573 c 0.34866,0.0714 0.69147,0.19831 1.02316,0.37381 l -1.02725,0.34573 c -0.33169,-0.1755 -0.6745,-0.30244 -1.02374,-0.37381"
         style="fill:#babab7;fill-opacity:1;fill-rule:nonzero;stroke:none;stroke-width:0.0352778"
         id="path1727" />
      <path
         d="m 157.13189,136.19438 1.02725,-0.34573 c 1.87022,0.98805 3.38419,3.50938 3.56846,6.17543 0.0257,0.37311 0.024,0.73247 -0.002,1.0754 l -1.02725,0.34602 c 0.0263,-0.34292 0.0275,-0.70234 0.002,-1.07545 -0.18427,-2.66629 -1.69824,-5.18703 -3.56788,-6.17567"
         style="fill:#babab7;fill-opacity:1;fill-rule:nonzero;stroke:none;stroke-width:0.0352778"
         id="path1729" />
      <path
         d="m 160.69801,143.4455 1.02725,-0.34602 c -0.1439,1.87455 -1.03368,3.25596 -2.30955,3.6854 l -1.02725,0.34597 c 1.27528,-0.42939 2.16564,-1.81085 2.30955,-3.68535"
         style="fill:#babab7;fill-opacity:1;fill-rule:nonzero;stroke:none;stroke-width:0.0352778"
         id="path1731" />
      <path
         d="m 163.03741,136.33302 1.44727,-0.78447 -1.3332,-0.7254 -1.07815,0.58441 c 0.35334,0.26852 0.67684,0.57856 0.96408,0.92546"
         style="fill:#3c3b3d;fill-opacity:1;fill-rule:nonzero;stroke:none;stroke-width:0.0352778"
         id="path1733" />
      <path
         d="m 161.37602,138.67534 0.98396,-0.17901 c -0.007,-0.014 -0.0135,-0.0281 -0.0205,-0.0415 -0.008,-0.014 -0.0146,-0.0281 -0.0222,-0.0415 -0.0164,-0.031 -0.0328,-0.062 -0.0497,-0.093 -0.008,-0.014 -0.0158,-0.0281 -0.0234,-0.0415 -0.0199,-0.0351 -0.0404,-0.0702 -0.0608,-0.10412 -0.005,-0.008 -0.009,-0.0158 -0.014,-0.024 -0.0252,-0.0415 -0.0515,-0.0825 -0.0778,-0.12343 -0.008,-0.0111 -0.0146,-0.0222 -0.0222,-0.0334 -0.0199,-0.0298 -0.0398,-0.0597 -0.0602,-0.0889 -0.009,-0.0134 -0.0187,-0.0263 -0.0281,-0.0398 -0.0205,-0.0287 -0.0415,-0.0573 -0.0626,-0.0854 -0.008,-0.0111 -0.0164,-0.0222 -0.0246,-0.0328 -0.0293,-0.0386 -0.0585,-0.0766 -0.0889,-0.11349 -0.004,-0.006 -0.009,-0.0111 -0.0135,-0.0164 -0.0257,-0.0316 -0.0526,-0.0632 -0.079,-0.0942 -0.0105,-0.0117 -0.0205,-0.0228 -0.0304,-0.0345 -0.0228,-0.0257 -0.0456,-0.0509 -0.0684,-0.0755 -0.0105,-0.0117 -0.0205,-0.0228 -0.031,-0.0339 -0.0281,-0.0292 -0.0562,-0.0585 -0.0842,-0.0866 -0.005,-0.005 -0.0105,-0.0111 -0.0158,-0.0164 -0.0333,-0.0333 -0.0679,-0.0661 -0.10237,-0.0983 -0.01,-0.009 -0.0193,-0.0181 -0.0292,-0.0269 -0.0257,-0.0234 -0.0515,-0.0468 -0.0778,-0.0696 -0.0117,-0.0105 -0.0234,-0.0205 -0.0357,-0.031 -0.0263,-0.0228 -0.0532,-0.045 -0.0807,-0.0673 -0.01,-0.008 -0.0193,-0.0164 -0.0298,-0.0246 -0.0363,-0.0293 -0.0737,-0.0585 -0.11174,-0.0866 -0.006,-0.005 -0.0129,-0.01 -0.0193,-0.0146 -0.0316,-0.0234 -0.0638,-0.0462 -0.0959,-0.0684 -0.0123,-0.009 -0.0246,-0.0175 -0.0374,-0.0263 -0.0275,-0.0187 -0.0556,-0.0374 -0.0837,-0.0556 -0.0123,-0.008 -0.0251,-0.0164 -0.0374,-0.0246 -0.0351,-0.0222 -0.0708,-0.0439 -0.10646,-0.0655 -0.005,-0.003 -0.01,-0.006 -0.0146,-0.009 -0.0404,-0.024 -0.0813,-0.0474 -0.12285,-0.0696 -0.22522,-0.12343 -0.46156,-0.22698 -0.70843,-0.30888 0.74412,0.59436 1.30279,1.43792 1.58709,2.44586"
         style="fill:#100f0d;fill-opacity:1;fill-rule:nonzero;stroke:none;stroke-width:0.0352778"
         id="path1735" />
      <path
         d="m 162.51384,133.6947 -1.33321,-0.72539 -1.34314,-0.64876 1.33378,0.72539 1.34257,0.64876"
         style="fill:#3c3b3d;fill-opacity:1;fill-rule:nonzero;stroke:none;stroke-width:0.0352778"
         id="path1737" />
      <path
         d="m 161.17127,133.04594 -1.33378,-0.72539 -0.98279,1.41919 1.3332,0.7254 0.98337,-1.4192"
         style="fill:#3c3b3d;fill-opacity:1;fill-rule:nonzero;stroke:none;stroke-width:0.0352778"
         id="path1739" />
      <path
         d="m 159.65555,134.3417 c 0.18077,0.0328 0.35861,0.0743 0.53235,0.12344 l -1.3332,-0.7254 c -0.0714,-0.0205 -0.14333,-0.0386 -0.21528,-0.0562 l 0.0889,0.56394 c 0.31648,0.007 0.62653,0.0392 0.92721,0.0942"
         style="fill:#3c3b3d;fill-opacity:1;fill-rule:nonzero;stroke:none;stroke-width:0.0352778"
         id="path1741" />
      <path
         d="m 158.47504,132.64522 -1.33321,-0.72539 -1.55257,0.2182 1.33379,0.72539 1.55199,-0.2182"
         style="fill:#3c3b3d;fill-opacity:1;fill-rule:nonzero;stroke:none;stroke-width:0.0352778"
         id="path1743" />
      <path
         d="m 156.92305,132.86342 -1.33379,-0.72539 -0.25857,1.67425 1.3332,0.7254 0.25916,-1.67426"
         style="fill:#100f0d;fill-opacity:1;fill-rule:nonzero;stroke:none;stroke-width:0.0352778"
         id="path1745" />
      <path
         d="m 150.90696,143.76912 -1.2045,-0.0499 c 0.0456,0.19153 0.0994,0.37849 0.15971,0.56142 l 1.12611,-0.0489 c -0.0316,-0.15192 -0.0591,-0.30601 -0.0813,-0.46267"
         style="fill:#100f0d;fill-opacity:1;fill-rule:nonzero;stroke:none;stroke-width:0.0352778"
         id="path1747" />
      <path
         d="m 156.66389,134.53768 -1.3332,-0.7254 c -0.33052,0.10062 -0.65344,0.22581 -0.96699,0.37323 l 0.83888,0.97987 c 0.46507,-0.2615 0.95412,-0.47385 1.46131,-0.6277"
         style="fill:#3c3b3d;fill-opacity:1;fill-rule:nonzero;stroke:none;stroke-width:0.0352778"
         id="path1749" />
      <path
         d="m 151.30593,139.90968 -1.33379,-0.72539 c -0.18251,0.52708 -0.31648,1.07346 -0.39428,1.63154 l 1.3332,0.72534 c 0.0778,-0.55803 0.21177,-1.10441 0.39487,-1.63149"
         style="fill:#100f0d;fill-opacity:1;fill-rule:nonzero;stroke:none;stroke-width:0.0352778"
         id="path1751" />
      <path
         d="m 152.98604,136.99641 c 0.0913,-0.10647 0.18544,-0.21002 0.28196,-0.31181 0.048,-0.0509 0.0965,-0.10061 0.14625,-0.15034 l -1.33379,-0.72539 c -0.39428,0.39604 -0.75288,0.83245 -1.06878,1.30161 l 1.3332,0.72539 c 0.19773,-0.29308 0.41184,-0.57388 0.64116,-0.83946"
         style="fill:#3c3b3d;fill-opacity:1;fill-rule:nonzero;stroke:none;stroke-width:0.0352778"
         id="path1753" />
      <path
         d="m 148.05921,141.3053 -0.003,1.67566 1.3332,0.72533 0.004,-1.67566 -1.33378,-0.72533"
         style="fill:#100f0d;fill-opacity:1;fill-rule:nonzero;stroke:none;stroke-width:0.0352778"
         id="path1755" />
      <path
         d="m 150.91106,141.54117 -1.3332,-0.72534 -1.51865,0.48947 1.33379,0.72533 1.51806,-0.48946"
         style="fill:#3c3b3d;fill-opacity:1;fill-rule:nonzero;stroke:none;stroke-width:0.0352778"
         id="path1757" />
      <path
         d="m 152.87781,135.04896 -1.3332,-0.72539 0.53585,1.4853 1.33379,0.72539 -0.53644,-1.4853"
         style="fill:#100f0d;fill-opacity:1;fill-rule:nonzero;stroke:none;stroke-width:0.0352778"
         id="path1759" />
      <path
         d="m 154.22388,134.0223 -1.3332,-0.7254 -1.34607,1.02667 1.3332,0.72539 1.34607,-1.02666"
         style="fill:#3c3b3d;fill-opacity:1;fill-rule:nonzero;stroke:none;stroke-width:0.0352778"
         id="path1761" />
      <path
         d="m 150.12073,139.01756 -1.3332,-0.72539 1.18461,0.89212 1.33379,0.72539 -1.1852,-0.89212"
         style="fill:#100f0d;fill-opacity:1;fill-rule:nonzero;stroke:none;stroke-width:0.0352778"
         id="path1763" />
      <path
         d="m 152.34488,137.83587 -1.3332,-0.72539 -1.44552,-0.37791 1.3332,0.7254 1.44552,0.3779"
         style="fill:#3c3b3d;fill-opacity:1;fill-rule:nonzero;stroke:none;stroke-width:0.0352778"
         id="path1765" />
      <path
         d="m 150.89936,137.45797 -1.3332,-0.7254 -0.77863,1.5596 1.3332,0.72539 0.77863,-1.55959"
         style="fill:#3c3b3d;fill-opacity:1;fill-rule:nonzero;stroke:none;stroke-width:0.0352778"
         id="path1767" />
      <path
         d="m 165.25804,136.89052 -0.77336,-1.34197 -1.44727,0.78447 c -0.28724,-0.3469 -0.61074,-0.65694 -0.96408,-0.92546 -0.0333,-0.0257 -0.0667,-0.0509 -0.1012,-0.076 l 0.54171,-1.63681 -1.34257,-0.64876 -0.98337,1.4192 v 0 c -0.17374,-0.0491 -0.35158,-0.0907 -0.53235,-0.12344 -0.30068,-0.055 -0.61073,-0.0872 -0.92721,-0.0942 l -0.0889,-0.56394 -0.16438,-1.03836 -1.55199,0.2182 -0.25916,1.67426 c -0.50719,0.15385 -0.99624,0.3662 -1.46131,0.6277 l -0.83888,-0.97987 -0.13982,-0.16321 -1.34607,1.02666 0.53644,1.4853 v 0 c -0.0497,0.0497 -0.0983,0.0995 -0.14625,0.15034 -0.0965,0.10179 -0.19071,0.20534 -0.28196,0.31181 -0.22932,0.26558 -0.44343,0.54638 -0.64116,0.83946 l -1.44552,-0.3779 -0.77863,1.55959 1.1852,0.89212 c -0.1831,0.52708 -0.31707,1.07346 -0.39487,1.63149 l -1.51806,0.48946 -0.004,1.67566 0.31298,0.0129 1.2045,0.0499 c 0.0222,0.15667 0.0497,0.31075 0.0813,0.46268 l 1.71287,-0.0744 c -0.16673,-0.52901 -0.25682,-1.10581 -0.25565,-1.71801 0.006,-3.11708 2.35987,-5.98297 5.24799,-6.38837 0.74469,-0.10471 1.45371,-0.0351 2.09545,0.17842 0.24686,0.0819 0.4832,0.18545 0.70842,0.30888 0.0415,0.0222 0.0825,0.0456 0.12285,0.0696 0.005,0.003 0.01,0.006 0.0146,0.009 0.0357,0.0216 0.0714,0.0433 0.10647,0.0655 0.0123,0.008 0.0251,0.0164 0.0374,0.0246 0.0281,0.0181 0.0562,0.0368 0.0837,0.0556 0.0129,0.009 0.0252,0.0175 0.0374,0.0263 0.0322,0.0222 0.0643,0.045 0.0959,0.0684 0.006,0.005 0.0129,0.01 0.0193,0.0146 0.038,0.0281 0.0755,0.0573 0.11173,0.0866 0.0105,0.008 0.0199,0.0164 0.0298,0.0246 0.0275,0.0222 0.0544,0.0445 0.0807,0.0673 0.0123,0.0105 0.024,0.0205 0.0357,0.031 0.0263,0.0228 0.0521,0.0462 0.0778,0.0696 0.01,0.009 0.0193,0.0175 0.0292,0.0269 0.0345,0.0322 0.069,0.0649 0.10238,0.0983 0.005,0.005 0.0105,0.0111 0.0158,0.0164 0.0281,0.0281 0.0562,0.0573 0.0842,0.0866 0.0105,0.0111 0.0205,0.0222 0.031,0.0339 0.0228,0.0246 0.0456,0.0497 0.0685,0.0755 0.01,0.0117 0.0199,0.0228 0.0304,0.0345 0.0263,0.031 0.0532,0.0626 0.079,0.0942 0.005,0.005 0.009,0.0105 0.0135,0.0164 0.0304,0.0369 0.0597,0.0749 0.0889,0.11349 0.008,0.0105 0.0164,0.0216 0.0246,0.0328 0.0211,0.0281 0.0421,0.0567 0.0626,0.0854 0.009,0.0134 0.0187,0.0263 0.0281,0.0398 0.0205,0.0292 0.0404,0.0591 0.0603,0.0889 0.008,0.0111 0.0146,0.0222 0.0222,0.0333 0.0263,0.041 0.0526,0.0819 0.0778,0.12343 0.005,0.008 0.009,0.0158 0.014,0.024 0.0205,0.0339 0.0409,0.069 0.0608,0.10413 0.008,0.0134 0.0158,0.0275 0.0234,0.0415 0.017,0.031 0.0333,0.062 0.0497,0.093 0.008,0.0134 0.0146,0.0275 0.0222,0.0415 0.007,0.0134 0.0135,0.0275 0.0205,0.0415 l 1.73275,-0.31531 c -0.008,-0.0216 -0.0152,-0.0439 -0.0234,-0.0649 l 1.18871,-1.22557"
         style="fill:#babab7;fill-opacity:1;fill-rule:nonzero;stroke:none;stroke-width:0.0352778"
         id="path1769" />
      <path
         d="m 172.25223,141.7957 v -0.045 c 0,-1.05241 -0.21995,-1.28875 -1.10914,-1.28875 -0.88335,0 -1.10857,0.25857 -1.10857,1.28875 v 0.045 c 0,1.05246 0.22522,1.29448 1.10857,1.29448 0.88919,0 1.10914,-0.24202 1.10914,-1.29448 z m -3.08994,0.0675 v -0.18006 c 0,-1.51958 0.49491,-1.98699 1.9808,-1.98699 1.49173,0 1.98137,0.46741 1.98137,1.98699 v 0.18006 c 0,1.51402 -0.48964,1.98676 -1.98137,1.98676 -1.48589,0 -1.9808,-0.47274 -1.9808,-1.98676"
         style="fill:#ffffff;fill-opacity:1;fill-rule:nonzero;stroke:none;stroke-width:0.0352778"
         id="path1771" />
      <path
         d="m 173.82762,143.77117 c 0.005,-0.22517 0.005,-0.46712 0.005,-0.78793 v -2.47628 c 0,-0.29835 0,-0.51772 -0.005,-0.73183 h 0.86111 c -0.006,0.21411 -0.006,0.42763 -0.006,0.71486 v 2.51577 h 0.86696 c 0.3937,0 0.82133,0 1.27178,-0.006 v 0.77108 h -2.994"
         style="fill:#ffffff;fill-opacity:1;fill-rule:nonzero;stroke:none;stroke-width:0.0352778"
         id="path1773" />
      <path
         d="m 180.21518,141.7957 v -0.045 c 0,-1.05241 -0.21938,-1.28875 -1.10915,-1.28875 -0.88334,0 -1.10857,0.25857 -1.10857,1.28875 v 0.045 c 0,1.05246 0.22523,1.29448 1.10857,1.29448 0.88977,0 1.10915,-0.24202 1.10915,-1.29448 z m -3.08994,0.0675 v -0.18006 c 0,-1.51958 0.49549,-1.98699 1.98079,-1.98699 1.49173,0 1.98137,0.46741 1.98137,1.98699 v 0.18006 c 0,1.51402 -0.48964,1.98676 -1.98137,1.98676 -1.4853,0 -1.98079,-0.47274 -1.98079,-1.98676"
         style="fill:#ffffff;fill-opacity:1;fill-rule:nonzero;stroke:none;stroke-width:0.0352778"
         id="path1775" />
      <path
         d="m 181.79642,140.50111 c 0,-0.2925 0,-0.51187 -0.006,-0.72598 h 0.86111 c -0.006,0.21411 -0.006,0.43348 -0.006,0.72598 v 0.86684 h 0.46741 c 0.22522,-0.29823 0.39955,-0.53456 0.56277,-0.73171 l 0.73182,-0.86111 h 1.04071 l 0.006,0.0111 c -0.5458,0.61366 -1.19339,1.33964 -1.66606,1.8969 0.57973,0.69229 1.1653,1.39013 1.76726,2.07679 l -0.005,0.0112 h -1.06937 l -0.85,-1.04117 c -0.1521,-0.18574 -0.30946,-0.38838 -0.48964,-0.63601 h -0.49549 v 0.90054 c 0,0.32075 0,0.54592 0.006,0.77664 h -0.86112 c 0.006,-0.22517 0.006,-0.45589 0.006,-0.77664 v -2.49342"
         style="fill:#ffffff;fill-opacity:1;fill-rule:nonzero;stroke:none;stroke-width:0.0352778"
         id="path1777" />
      <path
         d="m 189.64119,140.49584 v 0.42178 c 0,0.29835 0.006,0.69802 0.006,1.1876 0,1.31138 -0.43933,1.74475 -1.86321,1.74475 -1.42387,0 -1.86262,-0.43337 -1.86262,-1.74475 0,-0.48958 0.006,-0.89451 0.006,-1.1876 v -0.41651 c 0,-0.29835 0,-0.53469 -0.006,-0.72598 h 0.85526 c 0,0.19714 0,0.45044 0,0.72071 v 1.56434 c 0,0.83303 0.21996,1.03 1.00736,1.03 0.78799,0 1.00795,-0.19697 1.00795,-1.03 v -1.57604 c 0,-0.26968 0,-0.51772 -0.006,-0.70901 h 0.86112 c -0.006,0.19129 -0.006,0.42763 -0.006,0.72071"
         style="fill:#ffffff;fill-opacity:1;fill-rule:nonzero;stroke:none;stroke-width:0.0352778"
         id="path1779" />
      <path
         d="m 190.50756,143.00576 v -2.50465 c 0,-0.29835 0,-0.48379 -0.005,-0.72598 h 1.3449 l 0.75991,1.53655 c 0.28138,0.61904 0.56803,1.27195 0.75405,1.69408 h 0.0562 c -0.005,-0.59658 -0.017,-1.42393 -0.017,-1.76727 0,-0.42792 0,-1.01876 -0.005,-1.46336 h 0.81021 c -0.006,0.20826 -0.006,0.42763 -0.006,0.71486 v 2.49886 c 0,0.32081 0,0.5234 0.006,0.78232 h -1.31682 l -0.77687,-1.56457 c -0.2925,-0.63039 -0.56277,-1.19889 -0.78214,-1.67741 h -0.045 c 0.006,0.5458 0.017,1.34531 0.017,1.81243 0,0.39399 0,0.97934 0.005,1.42955 h -0.80437 c 0.005,-0.25325 0.005,-0.45021 0.005,-0.76541"
         style="fill:#ffffff;fill-opacity:1;fill-rule:nonzero;stroke:none;stroke-width:0.0352778"
         id="path1781" />
      <path
         d="m 196.69797,143.77117 c 0.006,-0.22517 0.006,-0.46712 0.006,-0.78793 v -2.47628 c 0,-0.29835 0,-0.51772 -0.006,-0.73183 h 0.86111 c -0.006,0.21411 -0.006,0.42763 -0.006,0.71486 v 2.51577 h 0.86696 c 0.3937,0 0.82192,0 1.27178,-0.006 v 0.77108 h -2.994"
         style="fill:#ffffff;fill-opacity:1;fill-rule:nonzero;stroke:none;stroke-width:0.0352778"
         id="path1783" />
      <path
         d="m 200.33898,143.77117 c 0.006,-0.22517 0.006,-0.46712 0.006,-0.78793 v -2.47628 c 0,-0.29835 0,-0.51772 -0.006,-0.73183 h 0.86111 c -0.005,0.21411 -0.005,0.42763 -0.005,0.71486 v 2.51577 h 0.86638 c 0.3937,0 0.82191,0 1.27177,-0.006 v 0.77108 h -2.994"
         style="fill:#ffffff;fill-opacity:1;fill-rule:nonzero;stroke:none;stroke-width:0.0352778"
         id="path1785" />
      <path
         d="m 203.63659,141.86321 v -0.18006 c 0,-1.51958 0.49549,-1.98699 1.94744,-1.98699 1.45781,0 1.91937,0.3662 1.90825,1.63804 l -0.83888,0.0225 c 0,-0.68655 -0.16321,-0.89481 -1.05825,-0.89481 -0.86111,0 -1.08575,0.25857 -1.08575,1.28875 v 0.045 c 0,1.05246 0.22464,1.29448 1.08575,1.29448 0.88919,0 1.0641,-0.21949 1.0641,-0.90049 l 0.8383,0.0225 c 0.0111,1.25504 -0.45571,1.63775 -1.91352,1.63775 -1.45195,0 -1.94744,-0.47274 -1.94744,-1.98676"
         style="fill:#ffffff;fill-opacity:1;fill-rule:nonzero;stroke:none;stroke-width:0.0352778"
         id="path1787" />
      <path
         d="m 207.49755,144.60291 v 0.63414 h -38.33526 v -0.63414 h 38.33526"
         style="fill:#ffffff;fill-opacity:1;fill-rule:nonzero;stroke:none;stroke-width:0.0352778"
         id="path1789" />
    </g>
  </g>
</svg>
