<?xml version="1.0" encoding="UTF-8" standalone="no"?>
<svg
   xmlns:dc="http://purl.org/dc/elements/1.1/"
   xmlns:cc="http://creativecommons.org/ns#"
   xmlns:rdf="http://www.w3.org/1999/02/22-rdf-syntax-ns#"
   xmlns:svg="http://www.w3.org/2000/svg"
   xmlns="http://www.w3.org/2000/svg"
   xmlns:sodipodi="http://sodipodi.sourceforge.net/DTD/sodipodi-0.dtd"
   xmlns:inkscape="http://www.inkscape.org/namespaces/inkscape"
   width="49.448189mm"
   height="15.674261mm"
   viewBox="0 0 49.448189 15.674261"
   version="1.1"
   id="svg3942"
   inkscape:version="1.0.2 (e86c870879, 2021-01-15)"
   sodipodi:docname="logo-light.svg">
  <defs
     id="defs3936">
    <clipPath
       clipPathUnits="userSpaceOnUse"
       id="clipPath1557">
      <path
         d="m 15843.9,9033.18 -227.9,123.99 c 138.2,-75.16 302,-106.94 477.5,-82.27 l 228,-123.99 c -175.6,-24.67 -339.4,7.11 -477.6,82.27 z"
         id="path1555" />
    </clipPath>
    <clipPath
       clipPathUnits="userSpaceOnUse"
       id="clipPath1567">
      <path
         d="m 16574.6,10925.2 228,-124 c 250.3,-136.2 416.5,-414.9 415.9,-758.2 -1,-532.76 -403.4,-1022.72 -897,-1092.09 l -228,123.99 c 493.6,69.37 896.1,559.33 897.1,1092.1 0.6,343.3 -165.6,622 -416,758.2 z"
         id="path1565" />
    </clipPath>
    <clipPath
       clipPathUnits="userSpaceOnUse"
       id="clipPath1583">
      <path
         d="m 15589.9,8827.96 -227.9,123.99 c -67.2,48.82 -128.3,106.27 -182.1,171.32 l 228,-123.99 c 53.8,-65.06 114.8,-122.51 182,-171.32 z"
         id="path1581" />
    </clipPath>
    <clipPath
       clipPathUnits="userSpaceOnUse"
       id="clipPath1593">
      <path
         d="m 16502,11191.7 -228,124 c 86.7,-2 170.3,-14.8 249.6,-37.2 l 227.9,-124 c -79.3,22.4 -162.9,35.2 -249.5,37.2 z"
         id="path1591" />
    </clipPath>
    <clipPath
       clipPathUnits="userSpaceOnUse"
       id="clipPath1611">
      <path
         d="m 15231.5,9303.98 -228,123.99 c -30.9,81.32 -53.5,168.38 -66.4,260.08 l 227.9,-123.99 c 13,-91.7 35.5,-178.77 66.5,-260.08 z"
         id="path1609" />
    </clipPath>
    <clipPath
       clipPathUnits="userSpaceOnUse"
       id="clipPath1621">
      <path
         d="m 15899.3,11034.8 -227.9,124 c 79.5,44.7 163.1,81 249.8,107.3 l 227.9,-124 c -86.7,-26.3 -170.3,-62.6 -249.8,-107.3 z"
         id="path1619" />
    </clipPath>
    <clipPath
       clipPathUnits="userSpaceOnUse"
       id="clipPath1631">
      <path
         d="m 15165.7,9944.91 -227.9,123.99 c 13.3,95.4 36.2,188.8 67.4,278.9 l 228,-124 c -31.3,-90.1 -54.2,-183.5 -67.5,-278.89 z"
         id="path1629" />
    </clipPath>
    <clipPath
       clipPathUnits="userSpaceOnUse"
       id="clipPath1641">
      <path
         d="m 15410.8,10578.3 -227.9,124 c 54,80.2 115.3,154.8 182.7,222.5 l 228,-124 c -67.4,-67.7 -128.7,-142.3 -182.8,-222.5 z"
         id="path1639" />
    </clipPath>
  </defs>
  <sodipodi:namedview
     id="base"
     pagecolor="#ffffff"
     bordercolor="#666666"
     borderopacity="1.0"
     inkscape:pageopacity="0.0"
     inkscape:pageshadow="2"
     inkscape:zoom="0.41679811"
     inkscape:cx="-142.35402"
     inkscape:cy="119.369"
     inkscape:document-units="mm"
     inkscape:current-layer="layer1"
     inkscape:document-rotation="0"
     showgrid="false"
     inkscape:window-width="1920"
     inkscape:window-height="1000"
     inkscape:window-x="0"
     inkscape:window-y="0"
     inkscape:window-maximized="1" />
  <metadata
     id="metadata3939">
    <rdf:RDF>
      <cc:Work
         rdf:about="">
        <dc:format>image/svg+xml</dc:format>
        <dc:type
           rdf:resource="http://purl.org/dc/dcmitype/StillImage" />
        <dc:title></dc:title>
      </cc:Work>
    </rdf:RDF>
  </metadata>
  <g
     inkscape:label="Layer 1"
     inkscape:groupmode="layer"
     id="layer1"
     transform="translate(-143.49783,-116.58362)">
    <g
       id="g2744"
       transform="matrix(0.48081893,0,0,0.48081893,201.83072,108.86782)"
       style="stroke-width:2.07978"
       inkscape:export-xdpi="66.940002"
       inkscape:export-ydpi="66.940002">
      <path
         d="m -98.681829,46.263566 -2.306611,-1.254924 -1.69328,-1.978892 2.30662,1.254924 1.693271,1.978892"
         style="fill:#cccccc;fill-opacity:1;fill-rule:nonzero;stroke:none;stroke-width:0.07337"
         id="path2202" />
      <path
         d="m -92.943122,29.399056 -2.306615,-1.255025 2.625432,0.109309 2.307629,1.255025 -2.626446,-0.109309"
         style="fill:#cccccc;fill-opacity:1;fill-rule:nonzero;stroke:none;stroke-width:0.07337"
         id="path2204" />
      <path
         d="m -106.03689,48.646294 -2.30762,-1.254924 -0.43724,-2.773001 2.30763,1.255028 0.43723,2.772897"
         style="fill:#cccccc;fill-opacity:1;fill-rule:nonzero;stroke:none;stroke-width:0.07337"
         id="path2206" />
      <path
         d="m -95.400543,23.682616 -2.306617,-1.254015 2.503981,-1.358259 2.306615,1.255024 -2.503979,1.35725"
         style="fill:#cccccc;fill-opacity:1;fill-rule:nonzero;stroke:none;stroke-width:0.07337"
         id="path2208" />
      <g
         id="g2214"
         transform="matrix(0.01012118,0,0,-0.01012118,-269.87543,133.34758)"
         style="stroke-width:7.24917">
        <g
           id="g2212"
           clip-path="url(#clipPath1557)"
           style="stroke-width:7.24917">
          <path
             d="m 15843.9,9033.18 -227.9,123.99 c 138.2,-75.16 302,-106.94 477.5,-82.27 l 228,-123.99 c -175.6,-24.67 -339.4,7.11 -477.6,82.27"
             style="fill:#3c3b3d;fill-opacity:1;fill-rule:nonzero;stroke:none;stroke-width:7.24917"
             id="path2210" />
        </g>
      </g>
      <g
         id="g2220"
         transform="matrix(0.01012118,0,0,-0.01012118,-269.87543,133.34758)"
         style="fill:#999999;fill-opacity:1;stroke-width:7.24917">
        <g
           id="g2218"
           clip-path="url(#clipPath1567)"
           style="fill:#999999;fill-opacity:1;stroke-width:7.24917">
          <path
             d="m 16321.5,8950.91 -228,123.99 c 493.6,69.37 896.1,559.33 897.1,1092.1 0.6,343.3 -165.6,622 -416,758.2 l 228,-124 c 250.3,-136.2 416.5,-414.9 415.9,-758.2 -1,-532.76 -403.4,-1022.72 -897,-1092.09"
             style="fill:#999999;fill-opacity:1;fill-rule:nonzero;stroke:none;stroke-width:7.24917"
             id="path2216" />
        </g>
      </g>
      <path
         d="m -113.02455,46.829745 -2.30661,-1.254925 0.93722,-2.831499 2.30661,1.254924 -0.93722,2.8315"
         style="fill:#cccccc;fill-opacity:1;fill-rule:nonzero;stroke:none;stroke-width:0.07337"
         id="path2222" />
      <path
         d="m -98.629197,17.995528 -2.307633,-1.255027 2.323825,1.12244 2.306618,1.255024 -2.32281,-1.122437"
         style="fill:#cccccc;fill-opacity:1;fill-rule:nonzero;stroke:none;stroke-width:0.07337"
         id="path2224" />
      <path
         d="m -100.33057,20.450923 -2.30661,-1.255025 1.70035,-2.455397 2.307633,1.255027 -1.701373,2.455395"
         style="fill:#cccccc;fill-opacity:1;fill-rule:nonzero;stroke:none;stroke-width:0.07337"
         id="path2226" />
      <g
         id="g2232"
         transform="matrix(0.01012118,0,0,-0.01012118,-269.87543,133.34758)"
         style="fill:#cccccc;fill-opacity:1;stroke-width:7.24917">
        <g
           id="g2230"
           clip-path="url(#clipPath1583)"
           style="fill:#cccccc;fill-opacity:1;stroke-width:7.24917">
          <path
             d="m 15589.9,8827.96 -227.9,123.99 c -67.2,48.82 -128.3,106.27 -182.1,171.32 l 228,-123.99 c 53.8,-65.06 114.8,-122.51 182,-171.32"
             style="fill:#cccccc;fill-opacity:1;fill-rule:nonzero;stroke:none;stroke-width:7.24917"
             id="path2228" />
        </g>
      </g>
      <g
         id="g2238"
         transform="matrix(0.01012118,0,0,-0.01012118,-269.87543,133.34758)"
         style="fill:#cccccc;stroke-width:7.24917">
        <g
           id="g2236"
           clip-path="url(#clipPath1593)"
           style="fill:#cccccc;stroke-width:7.24917">
          <path
             d="m 16502,11191.7 -228,124 c 86.7,-2 170.3,-14.8 249.6,-37.2 l 227.9,-124 c -79.3,22.4 -162.9,35.2 -249.5,37.2"
             style="fill:#cccccc;fill-opacity:1;fill-rule:nonzero;stroke:none;stroke-width:7.24917"
             id="path2234" />
        </g>
      </g>
      <path
         d="m -116.43437,43.622343 -2.30662,-1.254924 -1.33802,-2.321797 2.30662,1.254924 1.33802,2.321797"
         style="fill:#cccccc;fill-opacity:1;fill-rule:nonzero;stroke:none;stroke-width:0.07337"
         id="path2240" />
      <path
         d="m -117.77239,41.300546 -2.30662,-1.254924 2.05663,-2.120184 2.30763,1.254924 -2.05764,2.120184"
         style="fill:#cccccc;fill-opacity:1;fill-rule:nonzero;stroke:none;stroke-width:0.07337"
         id="path2242" />
      <path
         d="m -105.9792,17.679747 -2.30762,-1.255028 2.68616,-0.377519 2.30661,1.255027 -2.68515,0.37752"
         style="fill:#cccccc;fill-opacity:1;fill-rule:nonzero;stroke:none;stroke-width:0.07337"
         id="path2244" />
      <path
         d="m -106.42756,20.576427 -2.30662,-1.255027 0.44736,-2.896681 2.30762,1.255028 -0.44836,2.89668"
         style="fill:#cccccc;fill-opacity:1;fill-rule:nonzero;stroke:none;stroke-width:0.07337"
         id="path2246" />
      <g
         id="g2252"
         transform="matrix(0.01012118,0,0,-0.01012118,-269.87543,133.34758)"
         style="fill:#cccccc;fill-opacity:1;stroke-width:7.24917">
        <g
           id="g2250"
           clip-path="url(#clipPath1611)"
           style="fill:#cccccc;fill-opacity:1;stroke-width:7.24917">
          <path
             d="m 15231.5,9303.98 -228,123.99 c -30.9,81.32 -53.5,168.38 -66.4,260.08 l 227.9,-123.99 c 13,-91.7 35.5,-178.77 66.5,-260.08"
             style="fill:#cccccc;fill-opacity:1;fill-rule:nonzero;stroke:none;stroke-width:7.24917"
             id="path2248" />
        </g>
      </g>
      <g
         id="g2258"
         transform="matrix(0.01012118,0,0,-0.01012118,-269.87543,133.34758)"
         style="fill:#cccccc;stroke-width:7.24917">
        <g
           id="g2256"
           clip-path="url(#clipPath1621)"
           style="fill:#cccccc;stroke-width:7.24917">
          <path
             d="m 15899.3,11034.8 -227.9,124 c 79.5,44.7 163.1,81 249.8,107.3 l 227.9,-124 c -86.7,-26.3 -170.3,-62.6 -249.8,-107.3"
             style="fill:#cccccc;fill-opacity:1;fill-rule:nonzero;stroke:none;stroke-width:7.24917"
             id="path2254" />
        </g>
      </g>
      <g
         id="g2264"
         transform="matrix(0.01012118,0,0,-0.01012118,-269.87543,133.34758)"
         style="fill:#cccccc;fill-opacity:1;stroke-width:7.24917">
        <g
           id="g2262"
           clip-path="url(#clipPath1631)"
           style="fill:#cccccc;fill-opacity:1;stroke-width:7.24917">
          <path
             d="m 15165.7,9944.91 -227.9,123.99 c 13.3,95.4 36.2,188.8 67.4,278.9 l 228,-124 c -31.3,-90.1 -54.2,-183.5 -67.5,-278.89"
             style="fill:#cccccc;fill-opacity:1;fill-rule:nonzero;stroke:none;stroke-width:7.24917"
             id="path2260" />
        </g>
      </g>
      <g
         id="g2270"
         transform="matrix(0.01012118,0,0,-0.01012118,-269.87543,133.34758)"
         style="stroke-width:7.24917">
        <g
           id="g2268"
           clip-path="url(#clipPath1641)"
           style="stroke-width:7.24917">
          <path
             d="m 15410.8,10578.3 -227.9,124 c 54,80.2 115.3,154.8 182.7,222.5 l 228,-124 c -67.4,-67.7 -128.7,-142.3 -182.8,-222.5"
             style="fill:#a91318;fill-opacity:1;fill-rule:nonzero;stroke:none;stroke-width:7.24917"
             id="path2266" />
        </g>
      </g>
      <path
         d="m -119.01325,36.439345 -2.30661,-1.254924 0.005,-2.899111 2.30762,1.254927 -0.006,2.899108"
         style="fill:#cccccc;fill-opacity:1;fill-rule:nonzero;stroke:none;stroke-width:0.07337"
         id="path2272" />
      <path
         d="m -119.00718,33.540237 -2.30762,-1.254927 2.62745,-0.846838 2.30662,1.254924 -2.62645,0.846841"
         style="fill:#cccccc;fill-opacity:1;fill-rule:nonzero;stroke:none;stroke-width:0.07337"
         id="path2274" />
      <path
         d="m -112.04988,24.030785 -2.30762,-1.255027 -0.92711,-2.569767 2.30662,1.255027 0.92811,2.569767"
         style="fill:#cccccc;fill-opacity:1;fill-rule:nonzero;stroke:none;stroke-width:0.07337"
         id="path2276" />
      <path
         d="m -112.97799,21.461018 -2.30662,-1.255027 2.32889,-1.776266 2.30661,1.255027 -2.32888,1.776266"
         style="fill:#cccccc;fill-opacity:1;fill-rule:nonzero;stroke:none;stroke-width:0.07337"
         id="path2278" />
      <path
         d="m -115.69755,29.870701 -2.30763,-1.255024 -2.04954,-1.543479 2.30662,1.255025 2.05055,1.543478"
         style="fill:#cccccc;fill-opacity:1;fill-rule:nonzero;stroke:none;stroke-width:0.07337"
         id="path2280" />
      <path
         d="m -116.40097,25.628919 -2.30662,-1.255028 2.50095,0.65383 2.30661,1.255024 -2.50094,-0.653826"
         style="fill:#cccccc;fill-opacity:1;fill-rule:nonzero;stroke:none;stroke-width:0.07337"
         id="path2282" />
      <path
         d="m -117.7481,28.327223 -2.30662,-1.255025 1.34713,-2.698307 2.30662,1.255028 -1.34713,2.698304"
         style="fill:#cccccc;fill-opacity:1;fill-rule:nonzero;stroke:none;stroke-width:0.07337"
         id="path2284" />
      <path
         d="m -104.68267,42.753847 c 4.995809,-0.702106 9.068571,-5.661077 9.07869,-11.053235 0.01013,-5.392562 -4.046444,-9.208247 -9.04226,-8.505837 -4.99682,0.701397 -9.06958,5.659763 -9.0797,11.05273 -0.0101,5.392157 4.04644,9.208549 9.04327,8.506342 m 14.359921,-10.346676 -2.627457,0.846939 c -0.134613,0.965459 -0.365375,1.911284 -0.682167,2.822798 l 2.049538,1.54287 -1.34713,2.699217 -2.49993,-0.654636 c -0.547556,0.81192 -1.168995,1.567466 -1.850152,2.252972 l 0.927101,2.569463 -2.328883,1.776772 -1.693271,-1.978892 c -0.80362,0.453327 -1.65077,0.819918 -2.52827,1.086712 l -0.44736,2.897489 -2.68616,0.377419 -0.43723,-2.772897 c -0.87751,-0.02034 -1.72263,-0.149088 -2.52625,-0.37651 l -1.70137,2.455905 -2.32281,-1.123047 0.93722,-2.8315 c -0.68014,-0.494015 -1.29753,-1.075477 -1.84205,-1.73396 l -2.50499,1.358058 -1.33802,-2.321797 2.05764,-2.120184 c -0.31376,-0.822951 -0.54149,-1.704203 -0.67306,-2.632314 l -2.62544,-0.108703 0.006,-2.899108 2.62644,-0.846841 c 0.13461,-0.965457 0.36639,-1.910776 0.68318,-2.822695 l -2.05055,-1.543478 1.34713,-2.698304 2.50094,0.653826 c 0.54756,-0.811719 1.16799,-1.566758 1.85015,-2.25196 l -0.92811,-2.569767 2.32888,-1.776266 1.69328,1.977678 c 0.80463,-0.452417 1.65076,-0.819815 2.52827,-1.086003 l 0.44836,-2.89668 2.68515,-0.37752 0.43825,2.772189 c 0.87649,0.02026 1.72262,0.149793 2.52523,0.376507 l 1.701374,-2.455395 2.32281,1.122437 -0.937223,2.831904 c 0.680144,0.493915 1.298547,1.074869 1.843068,1.732747 l 2.503978,-1.35725 1.338019,2.321797 -2.056622,2.120388 c 0.313756,0.822851 0.541483,1.703394 0.672045,2.631505 l 2.626447,0.109309 -0.0061,2.898806"
         style="fill:#ffffff;fill-opacity:1;fill-rule:nonzero;stroke:none;stroke-width:0.07337"
         id="path2286" />
      <path
         d="m -113.06402,30.725943 1.77728,-0.598162 2.84304,0.579944 -1.77728,0.598159 -2.84304,-0.579941"
         style="fill:#848786;fill-opacity:1;fill-rule:nonzero;stroke:none;stroke-width:0.07337"
         id="path2288" />
      <path
         d="m -112.97698,31.990077 1.77728,-0.59816 c 0.46051,3.780359 2.64871,7.264776 5.31969,8.676884 l -1.77829,0.598564 c -2.66997,-1.412004 -4.85918,-4.896421 -5.31868,-8.677288"
         style="fill:#babab7;fill-opacity:1;fill-rule:nonzero;stroke:none;stroke-width:0.07337"
         id="path2290" />
      <path
         d="m -107.6583,40.667365 1.77829,-0.598564 c 0.3512,0.185721 0.71051,0.335618 1.07588,0.445532 l -1.77728,0.598667 c -0.36537,-0.110014 -0.72568,-0.259911 -1.07689,-0.445635"
         style="fill:#babab7;fill-opacity:1;fill-rule:nonzero;stroke:none;stroke-width:0.07337"
         id="path2292" />
      <path
         d="m -109.26858,31.787655 1.77829,-0.599176 0.0466,0.682167 -1.77728,0.598263 -0.0476,-0.681254"
         style="fill:#999999;fill-opacity:1;fill-rule:nonzero;stroke:none;stroke-width:0.07337"
         id="path2294" />
      <path
         d="m -109.22101,32.468909 1.77728,-0.598263 0.50201,0.102225 -1.77728,0.598464 -0.50201,-0.102426"
         style="fill:#babab7;fill-opacity:1;fill-rule:nonzero;stroke:none;stroke-width:0.07337"
         id="path2296" />
      <path
         d="m -110.28879,30.333241 1.77829,-0.599175 1.81877,0.371448 -1.77728,0.599173 -1.81978,-0.371446"
         style="fill:#848786;fill-opacity:1;fill-rule:nonzero;stroke:none;stroke-width:0.07337"
         id="path2298" />
      <path
         d="m -106.76865,35.354254 1.77829,-0.598668 0.0476,0.681866 -1.77829,0.598564 -0.0476,-0.681762"
         style="fill:#999999;fill-opacity:1;fill-rule:nonzero;stroke:none;stroke-width:0.07337"
         id="path2300" />
      <path
         d="m -105.91645,37.446201 1.7783,-0.598667 0.26618,3.857079 -1.77728,0.598564 -0.2672,-3.856976"
         style="fill:#999999;fill-opacity:1;fill-rule:nonzero;stroke:none;stroke-width:0.07337"
         id="path2302" />
      <path
         d="m -106.72108,36.036016 1.77829,-0.598564 0.50201,0.102526 -1.77728,0.598567 -0.50302,-0.102529"
         style="fill:#babab7;fill-opacity:1;fill-rule:nonzero;stroke:none;stroke-width:0.07337"
         id="path2304" />
      <path
         d="m -108.51253,30.070091 1.77728,-0.598163 0.4676,0.09514 -1.77829,0.599175 -0.46659,-0.09615"
         style="fill:#848786;fill-opacity:1;fill-rule:nonzero;stroke:none;stroke-width:0.07337"
         id="path2306" />
      <path
         d="m -107.49332,31.525515 1.77829,-0.59816 0.13461,1.947617 -1.77829,0.598667 -0.13461,-1.948124"
         style="fill:#848786;fill-opacity:1;fill-rule:nonzero;stroke:none;stroke-width:0.07337"
         id="path2308" />
      <path
         d="m -105.64925,41.303177 1.77728,-0.598564 c 0.63561,0.0669 1.23479,-5.74e-4 1.7874,-0.186637 l -1.77829,0.598668 c -0.5516,0.185825 -1.15179,0.253435 -1.78639,0.186533"
         style="fill:#babab7;fill-opacity:1;fill-rule:nonzero;stroke:none;stroke-width:0.07337"
         id="path2310" />
      <path
         d="m -109.55298,24.175518 1.77829,-0.599176 c -1.92303,0.647756 -3.2651,2.730695 -3.4827,5.557539 l -1.77728,0.598162 c 0.2166,-2.826843 1.55866,-4.909782 3.48169,-5.556525"
         style="fill:#babab7;fill-opacity:1;fill-rule:nonzero;stroke:none;stroke-width:0.07337"
         id="path2312" />
      <path
         d="m -113.03467,29.732043 1.77728,-0.598162 c -0.0243,0.321855 -0.0344,0.653829 -0.0293,0.9939 l -1.77728,0.598162 c -0.006,-0.340073 0.004,-0.672048 0.0293,-0.9939"
         style="fill:#babab7;fill-opacity:1;fill-rule:nonzero;stroke:none;stroke-width:0.07337"
         id="path2314" />
      <path
         d="m -107.35871,33.473639 1.77829,-0.598667 1.43619,0.293008 -1.77727,0.598667 -1.43721,-0.293008"
         style="fill:#babab7;fill-opacity:1;fill-rule:nonzero;stroke:none;stroke-width:0.07337"
         id="path2316" />
      <path
         d="m -105.36889,35.125314 1.77728,-0.598567 0.17105,2.467241 -1.77829,0.598564 -0.17004,-2.467238"
         style="fill:#999999;fill-opacity:1;fill-rule:nonzero;stroke:none;stroke-width:0.07337"
         id="path2318" />
      <path
         d="m -107.19677,29.153111 1.77727,-0.598162 0.0476,0.681157 -1.77829,0.598159 -0.0465,-0.681154"
         style="fill:#999999;fill-opacity:1;fill-rule:nonzero;stroke:none;stroke-width:0.07337"
         id="path2320" />
      <path
         d="m -108.21598,27.698698 1.77728,-0.599173 0.71658,0.146758 -1.77728,0.598159 -0.71658,-0.145744"
         style="fill:#999999;fill-opacity:1;fill-rule:nonzero;stroke:none;stroke-width:0.07337"
         id="path2322" />
      <path
         d="m -107.15022,29.834265 1.77829,-0.598159 0.50202,0.102222 -1.77728,0.598162 -0.50303,-0.102225"
         style="fill:#babab7;fill-opacity:1;fill-rule:nonzero;stroke:none;stroke-width:0.07337"
         id="path2324" />
      <path
         d="m -104.94583,34.587779 1.77728,-0.598667 0.0435,0.632774 -1.77728,0.598667 -0.0435,-0.632774"
         style="fill:#999999;fill-opacity:1;fill-rule:nonzero;stroke:none;stroke-width:0.07337"
         id="path2326" />
      <path
         d="m -104.69583,32.719713 1.77728,-0.598062 0.0476,0.681258 -1.77829,0.598667 -0.0466,-0.681863"
         style="fill:#848786;fill-opacity:1;fill-rule:nonzero;stroke:none;stroke-width:0.07337"
         id="path2328" />
      <path
         d="m -105.6786,30.649022 1.77728,-0.599175 0.46659,0.09514 -1.77728,0.599175 -0.46659,-0.09514"
         style="fill:#babab7;fill-opacity:1;fill-rule:nonzero;stroke:none;stroke-width:0.07337"
         id="path2330" />
      <path
         d="m -105.21201,30.744161 1.77728,-0.599175 0.0445,0.633586 -1.77829,0.599175 -0.0435,-0.633586"
         style="fill:#999999;fill-opacity:1;fill-rule:nonzero;stroke:none;stroke-width:0.07337"
         id="path2332" />
      <path
         d="m -104.64927,33.401576 1.77829,-0.598667 0.50201,0.102526 -1.77728,0.59867 -0.50302,-0.102529"
         style="fill:#babab7;fill-opacity:1;fill-rule:nonzero;stroke:none;stroke-width:0.07337"
         id="path2334" />
      <path
         d="m -105.84964,28.181478 1.77828,-0.59816 0.17004,2.466529 -1.77728,0.599175 -0.17104,-2.467544"
         style="fill:#999999;fill-opacity:1;fill-rule:nonzero;stroke:none;stroke-width:0.07337"
         id="path2336" />
      <path
         d="m -106.56724,28.034723 1.77829,-0.598163 0.71759,0.146758 -1.77828,0.59816 -0.7176,-0.146755"
         style="fill:#babab7;fill-opacity:1;fill-rule:nonzero;stroke:none;stroke-width:0.07337"
         id="path2338" />
      <path
         d="m -109.972,22.927577 1.77829,-0.598163 c 0.7854,-0.265175 1.65583,-0.320839 2.58292,-0.131575 l -1.77829,0.598163 c -0.92608,-0.188255 -1.79651,-0.132588 -2.58292,0.131575"
         style="fill:#cccccc;fill-opacity:1;fill-rule:nonzero;stroke:none;stroke-width:0.07337"
         id="path2340" />
      <path
         d="m -106.83342,24.178553 1.77728,-0.598162 0.26719,3.856169 -1.77829,0.598163 -0.26618,-3.85617"
         style="fill:#999999;fill-opacity:1;fill-rule:nonzero;stroke:none;stroke-width:0.07337"
         id="path2342" />
      <path
         d="m -103.19486,33.985568 1.77829,-0.598567 0.0678,0.973252 -1.77829,0.598567 -0.0678,-0.973252"
         style="fill:#999999;fill-opacity:1;fill-rule:nonzero;stroke:none;stroke-width:0.07337"
         id="path2344" />
      <path
         d="m -103.3487,31.74818 1.77728,-0.598159 0.0678,0.972643 -1.77829,0.599175 -0.0668,-0.973659"
         style="fill:#999999;fill-opacity:1;fill-rule:nonzero;stroke:none;stroke-width:0.07337"
         id="path2346" />
      <path
         d="m -105.16849,31.377747 1.77829,-0.599175 1.81878,0.371449 -1.77728,0.598159 -1.81979,-0.370433"
         style="fill:#babab7;fill-opacity:1;fill-rule:nonzero;stroke:none;stroke-width:0.07337"
         id="path2348" />
      <path
         d="m -103.2819,32.721839 1.77829,-0.599175 2.844047,0.580653 -1.778287,0.598567 -2.84405,-0.580045"
         style="fill:#babab7;fill-opacity:1;fill-rule:nonzero;stroke:none;stroke-width:0.07337"
         id="path2350" />
      <path
         d="m -107.19677,29.153111 0.0465,0.681154 0.50303,0.102225 -0.0476,-0.680144 -0.50201,-0.103235 m -1.5698,2.736766 -0.50201,-0.102222 0.0476,0.681254 0.50201,0.102426 -0.0476,-0.681458 m 4.57275,0.932363 -0.50201,-0.102527 0.0466,0.681863 0.50302,0.102529 -0.0476,-0.681865 m -2.02424,3.316305 -0.0476,-0.681762 -0.50302,-0.102529 0.0476,0.681762 0.50302,0.102529 m 0.16194,-4.320528 -1.4372,-0.292502 0.13461,1.948124 1.43721,0.293008 -0.13462,-1.94863 m -0.52529,9.294983 -0.2672,-3.857076 -0.71658,-0.146253 -0.17104,-2.467137 -0.4676,-0.09534 -0.0435,-0.632774 -1.81878,-0.371044 -0.0678,-0.973252 -2.84304,-0.580044 c 0.52023,4.278121 3.25396,8.176694 6.39557,9.122923 m -1.18518,-17.124724 c -3.0981,-0.326914 -5.36322,2.552561 -5.29743,6.737667 l 2.84304,0.579941 -0.0678,-0.972643 1.81978,0.371446 -0.0435,-0.634596 0.46659,0.09615 -0.17004,-2.467544 0.71658,0.145744 -0.26719,-3.856166 m 2.11734,17.314901 c 3.09911,0.326612 5.36321,-2.552458 5.29844,-6.737463 l -2.84405,-0.580146 0.0678,0.973252 -1.81878,-0.371041 0.0435,0.632774 -0.46659,-0.09524 0.17004,2.467238 -0.7176,-0.146351 0.2672,3.856976 m -1.18417,-17.124624 0.26618,3.85617 0.7176,0.146755 0.17104,2.467544 0.46659,0.09514 0.0435,0.633586 1.81979,0.370433 0.0668,0.973659 2.84405,0.580045 c -0.52124,-4.278325 -3.25396,-8.178012 -6.39557,-9.123331 m -0.55566,-1.382551 c 4.00495,0.816777 7.568619,5.899631 7.944116,11.331464 0.375494,5.430619 -2.576856,9.184868 -6.581796,8.368088 -4.00496,-0.81688 -7.56862,-5.900443 -7.94412,-11.331363 -0.37549,-5.431024 2.57685,-9.184969 6.5818,-8.368189"
         style="fill:#ffffff;fill-opacity:1;fill-rule:nonzero;stroke:none;stroke-width:0.07337"
         id="path2352" />
      <path
         d="m -107.38908,22.796002 1.77829,-0.598163 c 0.60323,0.123479 1.19633,0.343109 1.7702,0.646743 l -1.77728,0.598163 c -0.57387,-0.303637 -1.16697,-0.523265 -1.77121,-0.646743"
         style="fill:#cccccc;fill-opacity:1;fill-rule:nonzero;stroke:none;stroke-width:0.07337"
         id="path2354" />
      <path
         d="m -105.61787,23.442745 1.77728,-0.598163 c 3.23574,1.709468 5.855098,6.071694 6.173915,10.68432 0.04453,0.645527 0.0415,1.267272 -0.004,1.860575 L -99.448,35.988144 c 0.04555,-0.593302 0.04757,-1.215148 0.003,-1.860678 -0.318817,-4.613028 -2.93818,-8.974244 -6.1729,-10.684721"
         style="fill:#babab7;fill-opacity:1;fill-rule:nonzero;stroke:none;stroke-width:0.07337"
         id="path2356" />
      <path
         d="m -99.448003,35.988144 1.77728,-0.598667 c -0.24898,3.243229 -1.788411,5.633245 -3.995837,6.37624 l -1.77728,0.598567 c 2.20641,-0.742895 3.746858,-3.133011 3.995837,-6.37614"
         style="fill:#babab7;fill-opacity:1;fill-rule:nonzero;stroke:none;stroke-width:0.07337"
         id="path2358" />
      <path
         d="m -95.400543,23.682616 2.503979,-1.35725 -2.306615,-1.255024 -1.865334,1.011105 c 0.61132,0.464562 1.17102,1.000984 1.66797,1.601169"
         style="fill:#cccccc;fill-opacity:1;fill-rule:nonzero;stroke:none;stroke-width:0.07337"
         id="path2360" />
      <path
         d="m -98.274957,27.735134 1.702381,-0.309708 c -0.01214,-0.0243 -0.02327,-0.04858 -0.03542,-0.07186 -0.01317,-0.0243 -0.0253,-0.04858 -0.03846,-0.07186 -0.02835,-0.05364 -0.05668,-0.107286 -0.08603,-0.160927 -0.01317,-0.0243 -0.02734,-0.04858 -0.04048,-0.07186 -0.03441,-0.06073 -0.06984,-0.121453 -0.10526,-0.180156 -0.0081,-0.01417 -0.01618,-0.02734 -0.0243,-0.0415 -0.04352,-0.07186 -0.08907,-0.142709 -0.134613,-0.213556 -0.01317,-0.01922 -0.02531,-0.03846 -0.03846,-0.05769 -0.03441,-0.05162 -0.06882,-0.103235 -0.104251,-0.153841 -0.01618,-0.02327 -0.03239,-0.04555 -0.04858,-0.06882 -0.03542,-0.04959 -0.07186,-0.09919 -0.108296,-0.147768 -0.01417,-0.01922 -0.02835,-0.03846 -0.04251,-0.05668 -0.05061,-0.0668 -0.101213,-0.132588 -0.153841,-0.196351 -0.0071,-0.01013 -0.01518,-0.01922 -0.02327,-0.02835 -0.04453,-0.05465 -0.09109,-0.109308 -0.136636,-0.16295 -0.01822,-0.02023 -0.03542,-0.03947 -0.05263,-0.05972 -0.03947,-0.04453 -0.07895,-0.08805 -0.118417,-0.130562 -0.01822,-0.02025 -0.03543,-0.03947 -0.05365,-0.0587 -0.04858,-0.05061 -0.09716,-0.101212 -0.145745,-0.149793 -0.0091,-0.0091 -0.01822,-0.01922 -0.02734,-0.02835 -0.05769,-0.05769 -0.117405,-0.114369 -0.177121,-0.170036 -0.01721,-0.01618 -0.0334,-0.03138 -0.05061,-0.04656 -0.04453,-0.04049 -0.08907,-0.08097 -0.13461,-0.120441 -0.02026,-0.01822 -0.04048,-0.03542 -0.06174,-0.05364 -0.04555,-0.03947 -0.0921,-0.07793 -0.139674,-0.116395 -0.01721,-0.01417 -0.0334,-0.02835 -0.05162,-0.04251 -0.06275,-0.0506 -0.127527,-0.10121 -0.193316,-0.149793 -0.01113,-0.0081 -0.02226,-0.01721 -0.0334,-0.0253 -0.05465,-0.04048 -0.110318,-0.07996 -0.165985,-0.118418 -0.02126,-0.01518 -0.04251,-0.03036 -0.06478,-0.04555 -0.04757,-0.03239 -0.09615,-0.06478 -0.144732,-0.09615 -0.02126,-0.01417 -0.04352,-0.02835 -0.06478,-0.04251 -0.06073,-0.03846 -0.122466,-0.07591 -0.184207,-0.113357 -0.0081,-0.0051 -0.01721,-0.01013 -0.0253,-0.01518 -0.06984,-0.0415 -0.140684,-0.08198 -0.212544,-0.120443 -0.389666,-0.213557 -0.798566,-0.392703 -1.225676,-0.534399 1.287414,1.028313 2.253987,2.487785 2.745876,4.231663"
         style="fill:#999999;fill-opacity:1;fill-rule:nonzero;stroke:none;stroke-width:0.07337"
         id="path2362" />
      <path
         d="m -96.306387,19.117965 -2.306618,-1.255024 -2.323825,-1.12244 2.307633,1.255027 2.32281,1.122437"
         style="fill:#cccccc;fill-opacity:1;fill-rule:nonzero;stroke:none;stroke-width:0.07337"
         id="path2364" />
      <path
         d="m -98.629197,17.995528 -2.307633,-1.255027 -1.70035,2.455397 2.30661,1.255025 1.701373,-2.455395"
         style="fill:#cccccc;fill-opacity:1;fill-rule:nonzero;stroke:none;stroke-width:0.07337"
         id="path2366" />
      <path
         d="m -101.2516,20.237366 c 0.31275,0.05668 0.62043,0.12854 0.92103,0.213557 l -2.30661,-1.255025 c -0.12348,-0.03542 -0.24797,-0.0668 -0.37246,-0.09716 l 0.15384,0.975682 c 0.54755,0.01214 1.08398,0.06781 1.6042,0.16295"
         style="fill:#cccccc;fill-opacity:1;fill-rule:nonzero;stroke:none;stroke-width:0.07337"
         id="path2368" />
      <path
         d="m -103.29405,17.302227 -2.30661,-1.255027 -2.68616,0.377519 2.30762,1.255028 2.68515,-0.37752"
         style="fill:#cccccc;fill-opacity:1;fill-rule:nonzero;stroke:none;stroke-width:0.07337"
         id="path2370" />
      <path
         d="m -105.9792,17.679747 -2.30762,-1.255028 -0.44736,2.896681 2.30662,1.255027 0.44836,-2.89668"
         style="fill:#cccccc;fill-opacity:1;fill-rule:nonzero;stroke:none;stroke-width:0.07337"
         id="path2372" />
      <path
         d="m -116.38781,36.548048 -2.08395,-0.08633 c 0.0789,0.331366 0.17206,0.65484 0.2763,0.97133 l 1.94833,-0.08451 c -0.0547,-0.262849 -0.10222,-0.529438 -0.14068,-0.800484"
         style="fill:#cccccc;fill-opacity:1;fill-rule:nonzero;stroke:none;stroke-width:0.07337"
         id="path2374" />
      <path
         d="m -106.42756,20.576427 -2.30662,-1.255027 c -0.57185,0.174085 -1.13054,0.390679 -1.67303,0.645733 l 1.45138,1.695297 c 0.80463,-0.452417 1.65076,-0.819815 2.52827,-1.086003"
         style="fill:#cccccc;fill-opacity:1;fill-rule:nonzero;stroke:none;stroke-width:0.07337"
         id="path2376" />
      <path
         d="m -115.69755,29.870701 -2.30763,-1.255024 c -0.31578,0.911919 -0.54755,1.857235 -0.68217,2.822795 l 2.30662,1.254924 c 0.13461,-0.965457 0.36639,-1.910776 0.68318,-2.822695"
         style="fill:#cccccc;fill-opacity:1;fill-rule:nonzero;stroke:none;stroke-width:0.07337"
         id="path2378" />
      <path
         d="m -112.79075,24.830357 c 0.15789,-0.184207 0.32084,-0.36335 0.48784,-0.53946 0.083,-0.08805 0.167,-0.174082 0.25303,-0.260112 l -2.30762,-1.255027 c -0.68217,0.685205 -1.3026,1.440244 -1.84914,2.251963 l 2.30661,1.255024 c 0.3421,-0.507069 0.71253,-0.992887 1.10928,-1.452388"
         style="fill:#cccccc;fill-opacity:1;fill-rule:nonzero;stroke:none;stroke-width:0.07337"
         id="path2380" />
      <path
         d="m -121.3148,32.28531 -0.005,2.899111 2.30662,1.254924 0.006,-2.899108 -2.30763,-1.254927"
         style="fill:#cccccc;fill-opacity:1;fill-rule:nonzero;stroke:none;stroke-width:0.07337"
         id="path2382" />
      <path
         d="m -116.38073,32.693396 -2.30662,-1.254924 -2.62745,0.846838 2.30762,1.254927 2.62645,-0.846841"
         style="fill:#cccccc;fill-opacity:1;fill-rule:nonzero;stroke:none;stroke-width:0.07337"
         id="path2384" />
      <path
         d="m -112.97799,21.461018 -2.30662,-1.255027 0.92711,2.569767 2.30762,1.255027 -0.92811,-2.569767"
         style="fill:#cccccc;fill-opacity:1;fill-rule:nonzero;stroke:none;stroke-width:0.07337"
         id="path2386" />
      <path
         d="m -110.64911,19.684752 -2.30661,-1.255027 -2.32889,1.776266 2.30662,1.255027 2.32888,-1.776266"
         style="fill:#cccccc;fill-opacity:1;fill-rule:nonzero;stroke:none;stroke-width:0.07337"
         id="path2388" />
      <path
         d="m -117.7481,28.327223 -2.30662,-1.255025 2.04954,1.543479 2.30763,1.255024 -2.05055,-1.543478"
         style="fill:#cccccc;fill-opacity:1;fill-rule:nonzero;stroke:none;stroke-width:0.07337"
         id="path2390" />
      <path
         d="m -113.90003,26.282745 -2.30661,-1.255024 -2.50095,-0.65383 2.30662,1.255028 2.50094,0.653826"
         style="fill:#cccccc;fill-opacity:1;fill-rule:nonzero;stroke:none;stroke-width:0.07337"
         id="path2392" />
      <path
         d="m -116.40097,25.628919 -2.30662,-1.255028 -1.34713,2.698307 2.30662,1.255025 1.34713,-2.698304"
         style="fill:#cccccc;fill-opacity:1;fill-rule:nonzero;stroke:none;stroke-width:0.07337"
         id="path2394" />
      <path
         d="m -91.558546,24.647163 -1.338018,-2.321797 -2.503979,1.35725 c -0.49695,-0.600185 -1.05665,-1.136607 -1.66797,-1.601169 -0.05769,-0.04453 -0.115382,-0.08806 -0.175098,-0.131578 l 0.937224,-2.831904 -2.32281,-1.122437 -1.701373,2.455395 v 0 c -0.3006,-0.08502 -0.60828,-0.156877 -0.92103,-0.213557 -0.52022,-0.09514 -1.05665,-0.150805 -1.6042,-0.16295 l -0.15384,-0.975682 -0.28441,-1.796507 -2.68515,0.37752 -0.44836,2.89668 c -0.87751,0.266188 -1.72364,0.633586 -2.52827,1.086003 l -1.45138,-1.695297 -0.2419,-0.282381 -2.32888,1.776266 0.92811,2.569767 v 0 c -0.086,0.08603 -0.17003,0.17206 -0.25303,0.260112 -0.167,0.17611 -0.32995,0.355253 -0.48784,0.53946 -0.39675,0.459501 -0.76718,0.945319 -1.10928,1.452388 l -2.50094,-0.653826 -1.34713,2.698304 2.05055,1.543478 c -0.31679,0.911919 -0.54857,1.857238 -0.68318,2.822695 l -2.62645,0.846841 -0.006,2.899108 0.54149,0.02238 2.08394,0.08633 c 0.0385,0.271045 0.086,0.537635 0.14069,0.800484 l 2.96348,-0.12864 c -0.28845,-0.915258 -0.44432,-1.913206 -0.4423,-2.972388 0.0101,-5.392966 4.08289,-10.351332 9.07971,-11.05273 1.28843,-0.181168 2.51511,-0.06073 3.62541,0.308696 0.42711,0.141696 0.83601,0.320842 1.225672,0.534399 0.07186,0.03846 0.142707,0.07895 0.212544,0.120443 0.0081,0.005 0.01721,0.01013 0.0253,0.01518 0.06174,0.03745 0.123479,0.0749 0.184207,0.113357 0.02126,0.01417 0.04352,0.02835 0.06478,0.04251 0.04858,0.03138 0.09716,0.06376 0.144732,0.09615 0.02226,0.01518 0.04352,0.03036 0.06478,0.04555 0.05567,0.03846 0.111332,0.07793 0.165986,0.118418 0.01113,0.0081 0.02226,0.01721 0.0334,0.0253 0.06579,0.04858 0.130562,0.09919 0.193316,0.149793 0.01822,0.01417 0.03441,0.02835 0.05162,0.04251 0.04757,0.03846 0.09413,0.07692 0.139674,0.116395 0.02126,0.01822 0.04149,0.03542 0.06174,0.05364 0.04555,0.03947 0.09008,0.07996 0.13461,0.120441 0.01721,0.01518 0.0334,0.03037 0.05061,0.04656 0.05971,0.05567 0.119431,0.112344 0.17712,0.170036 0.0091,0.0091 0.01822,0.01922 0.02734,0.02835 0.04858,0.04858 0.09716,0.09919 0.145745,0.149793 0.01822,0.01922 0.03543,0.03846 0.05364,0.0587 0.03947,0.04251 0.07894,0.08603 0.118418,0.130562 0.01721,0.02025 0.03441,0.03947 0.05263,0.05972 0.04554,0.05364 0.0921,0.108296 0.136636,0.16295 0.0081,0.0091 0.01618,0.01822 0.02327,0.02835 0.05263,0.06376 0.103235,0.129552 0.153842,0.196351 0.01417,0.01822 0.02835,0.03745 0.04251,0.05668 0.03644,0.04858 0.07287,0.09817 0.108295,0.147768 0.01618,0.02327 0.03239,0.04555 0.04858,0.06882 0.03543,0.05061 0.06984,0.102225 0.104251,0.153841 0.01317,0.01922 0.0253,0.03846 0.03846,0.05769 0.04555,0.07085 0.09109,0.141694 0.134613,0.213556 0.0081,0.01417 0.01618,0.02734 0.0243,0.0415 0.03542,0.0587 0.07085,0.119428 0.105261,0.180156 0.01317,0.02327 0.02734,0.04757 0.04048,0.07186 0.02935,0.05364 0.05769,0.107286 0.08603,0.160927 0.01317,0.02327 0.0253,0.04757 0.03846,0.07186 0.01213,0.02327 0.02327,0.04757 0.03542,0.07186 l 2.997893,-0.545531 c -0.01417,-0.03745 -0.02631,-0.07591 -0.04049,-0.112344 l 2.056622,-2.120388"
         style="fill:#ffffff;fill-opacity:1;fill-rule:nonzero;stroke:none;stroke-width:0.07337"
         id="path2396" />
      <path
         d="m -79.457666,33.13377 v -0.07793 c 0,-1.820799 -0.380558,-2.229693 -1.918976,-2.229693 -1.528296,0 -1.917963,0.447356 -1.917963,2.229693 v 0.07793 c 0,1.820902 0.389667,2.239614 1.917963,2.239614 1.538418,0 1.918976,-0.418712 1.918976,-2.239614 z m -5.346007,0.116799 V 32.93904 c 0,-2.629078 0.856252,-3.437759 3.427031,-3.437759 2.580899,0 3.428042,0.808681 3.428042,3.437759 v 0.311529 c 0,2.619461 -0.847143,3.437354 -3.428042,3.437354 -2.570779,0 -3.427031,-0.817893 -3.427031,-3.437354"
         style="fill:#ffffff;fill-opacity:1;fill-rule:nonzero;stroke:none;stroke-width:0.07337"
         id="path2398" />
      <path
         d="m -76.732035,36.551589 c 0.0091,-0.389564 0.0091,-0.808176 0.0091,-1.36322 v -4.284293 c 0,-0.516181 0,-0.895726 -0.0091,-1.266159 h 1.489837 c -0.01013,0.370433 -0.01013,0.739856 -0.01013,1.236806 v 4.352612 h 1.499959 c 0.681157,0 1.421013,0 2.200344,-0.0098 v 1.334071 h -5.180019"
         style="fill:#ffffff;fill-opacity:1;fill-rule:nonzero;stroke:none;stroke-width:0.07337"
         id="path2400" />
      <path
         d="m -65.680722,33.13377 v -0.07793 c 0,-1.820799 -0.379545,-2.229693 -1.918976,-2.229693 -1.528296,0 -1.91796,0.447356 -1.91796,2.229693 v 0.07793 c 0,1.820902 0.389664,2.239614 1.91796,2.239614 1.539431,0 1.918976,-0.418712 1.918976,-2.239614 z m -5.346004,0.116799 V 32.93904 c 0,-2.629078 0.857264,-3.437759 3.427028,-3.437759 2.580902,0 3.428044,0.808681 3.428044,3.437759 v 0.311529 c 0,2.619461 -0.847142,3.437354 -3.428044,3.437354 -2.569764,0 -3.427028,-0.817893 -3.427028,-3.437354"
         style="fill:#ffffff;fill-opacity:1;fill-rule:nonzero;stroke:none;stroke-width:0.07337"
         id="path2402" />
      <path
         d="m -62.944967,30.893954 c 0,-0.506059 0,-0.885604 -0.01013,-1.256037 h 1.489837 c -0.01013,0.370433 -0.01013,0.749978 -0.01013,1.256037 v 1.499756 h 0.80868 c 0.389667,-0.515978 0.691279,-0.924872 0.97366,-1.265956 l 1.266159,-1.489837 h 1.800555 l 0.01013,0.01922 c -0.944306,1.061712 -2.06472,2.317752 -2.88251,3.281895 1.003009,1.197739 2.016137,2.405095 3.057608,3.593117 l -0.0091,0.01942 h -1.850151 l -1.470607,-1.801364 c -0.263152,-0.321347 -0.535411,-0.671947 -0.847142,-1.100374 h -0.857264 v 1.558053 c 0,0.554944 0,0.944508 0.01013,1.343685 h -1.489837 c 0.01013,-0.389563 0.01013,-0.788741 0.01013,-1.343685 V 30.89394"
         style="fill:#ffffff;fill-opacity:1;fill-rule:nonzero;stroke:none;stroke-width:0.07337"
         id="path2404" />
      <path
         d="m -49.37247,30.884845 v 0.729738 c 0,0.516178 0.01013,1.207657 0.01013,2.054699 0,2.268864 -0.760103,3.018641 -3.223596,3.018641 -2.463494,0 -3.222581,-0.749777 -3.222581,-3.018641 0,-0.847042 0.01013,-1.547631 0.01013,-2.054699 v -0.720629 c 0,-0.516181 0,-0.925076 -0.01013,-1.256037 h 1.479715 c 0,0.341083 0,0.779328 0,1.246928 v 2.706503 c 0,1.441257 0.380555,1.782036 1.742866,1.782036 1.363323,0 1.743878,-0.340779 1.743878,-1.782036 v -2.726746 c 0,-0.466585 0,-0.895724 -0.01013,-1.226685 h 1.489838 c -0.01013,0.330961 -0.01013,0.739856 -0.01013,1.246928"
         style="fill:#ffffff;fill-opacity:1;fill-rule:nonzero;stroke:none;stroke-width:0.07337"
         id="path2406" />
      <path
         d="m -47.873524,35.227335 v -4.333381 c 0,-0.516181 0,-0.83702 -0.0091,-1.256037 h 2.326858 l 1.31474,2.658428 c 0.486828,1.071021 0.982768,2.200648 1.304621,2.93099 h 0.09716 c -0.0091,-1.032158 -0.02935,-2.463594 -0.02935,-3.057608 0,-0.740364 0,-1.762601 -0.0091,-2.53181 h 1.401782 c -0.01013,0.360311 -0.01013,0.739856 -0.01013,1.236806 v 4.323363 c 0,0.555044 0,0.905541 0.01013,1.353503 h -2.278277 l -1.34411,-2.706908 c -0.506056,-1.090657 -0.973656,-2.074235 -1.353198,-2.902146 h -0.07793 c 0.01013,0.944306 0.02935,2.327566 0.02935,3.135742 0,0.681662 0,1.694388 0.0091,2.473312 h -1.39166 c 0.0091,-0.438145 0.0091,-0.778924 0.0091,-1.324254"
         style="fill:#ffffff;fill-opacity:1;fill-rule:nonzero;stroke:none;stroke-width:0.07337"
         id="path2408" />
      <path
         d="m -37.163297,36.551589 c 0.01013,-0.389564 0.01013,-0.808176 0.01013,-1.36322 v -4.284293 c 0,-0.516181 0,-0.895726 -0.01013,-1.266159 h 1.489837 c -0.01013,0.370433 -0.01013,0.739856 -0.01013,1.236806 v 4.352612 h 1.499957 c 0.681156,0 1.422025,0 2.200343,-0.0098 v 1.334071 h -5.180018"
         style="fill:#ffffff;fill-opacity:1;fill-rule:nonzero;stroke:none;stroke-width:0.07337"
         id="path2410" />
      <path
         d="m -30.863878,36.551589 c 0.01013,-0.389564 0.01013,-0.808176 0.01013,-1.36322 v -4.284293 c 0,-0.516181 0,-0.895726 -0.01013,-1.266159 h 1.489838 c -0.0091,0.370433 -0.0091,0.739856 -0.0091,1.236806 v 4.352612 h 1.498946 c 0.681157,0 1.422026,0 2.200344,-0.0098 v 1.334071 h -5.180018"
         style="fill:#ffffff;fill-opacity:1;fill-rule:nonzero;stroke:none;stroke-width:0.07337"
         id="path2412" />
      <path
         d="M -25.158569,33.250569 V 32.93904 c 0,-2.629078 0.857264,-3.437759 3.369339,-3.437759 2.522199,0 3.320758,0.633583 3.301527,2.83403 l -1.451376,0.03897 c 0,-1.187821 -0.282381,-1.548135 -1.830921,-1.548135 -1.489837,0 -1.878491,0.447356 -1.878491,2.229693 v 0.07793 c 0,1.820902 0.388654,2.239614 1.878491,2.239614 1.538418,0 1.841043,-0.379746 1.841043,-1.557953 l 1.450363,0.03897 c 0.01922,2.171396 -0.788437,2.833525 -3.310636,2.833525 -2.512075,0 -3.369339,-0.817893 -3.369339,-3.437354"
         style="fill:#ffffff;fill-opacity:1;fill-rule:nonzero;stroke:none;stroke-width:0.07337"
         id="path2414" />
      <path
         d="m -18.478594,37.990619 v 1.097135 h -66.325079 v -1.097135 h 66.325079"
         style="fill:#ffffff;fill-opacity:1;fill-rule:nonzero;stroke:none;stroke-width:0.07337"
         id="path2416" />
    </g>
  </g>
</svg>
