<svg xmlns="http://www.w3.org/2000/svg" xmlns:xlink="http://www.w3.org/1999/xlink" xmlns:serif="http://www.serif.com/" width="100%" height="100%" viewBox="0 0 850 271" xml:space="preserve" style="fill-rule:evenodd;clip-rule:evenodd;stroke-linejoin:round;stroke-miterlimit:2;">    <g transform="matrix(4.16667,0,0,4.16667,0,0)">        <path d="M7.472,36.67C7.472,18.133 30.72,3.112 59.4,3.112C74.265,3.112 87.671,7.149 97.137,13.62C87.186,5.766 71.724,0.722 54.362,0.722C24.339,0.722 0,15.805 0,34.413C0,47.969 12.926,59.657 31.556,65C17.078,59.045 7.472,48.583 7.472,36.67Z" style="fill:white;fill-rule:nonzero;"></path>        <path d="M22.273,21.852L29.209,21.852L29.209,43.844L40.086,43.844L40.086,49.717L22.273,49.717L22.273,21.852Z" style="fill:white;fill-rule:nonzero;"></path>        <path d="M66.618,43.372C65.592,44.988 64.608,46.563 62.4,48.099C61.218,48.928 58.498,50.545 54.636,50.545C47.266,50.545 41.314,45.184 41.314,35.765C41.314,27.528 46.91,21.024 54.793,21.024C57.985,21.024 60.823,22.128 62.912,23.784C64.844,25.321 65.75,26.859 66.538,28.237L61.021,30.997C60.626,30.09 60.153,29.144 58.932,28.121C57.592,27.055 56.251,26.741 55.109,26.741C50.616,26.741 48.252,30.916 48.252,35.569C48.252,41.676 51.365,44.711 55.109,44.711C58.735,44.711 60.193,42.19 61.139,40.573L66.618,43.372Z" style="fill:white;fill-rule:nonzero;"></path>        <path d="M69.176,21.893L89.75,21.893L89.75,27.291L76.112,27.291L76.112,32.878L87.8,32.878L87.8,38.159L76.112,38.159L76.112,44.239L90.97,44.239L90.97,49.717L69.176,49.717L69.176,21.893Z" style="fill:white;fill-rule:nonzero;"></path>        <path d="M97.636,21.809L100.942,21.809L100.942,31.771L106.126,31.771L106.126,34.431L97.636,34.431L97.636,21.809Z" style="fill:white;fill-rule:nonzero;"></path>        <rect x="107.631" y="21.827" width="3.306" height="12.604" style="fill:white;"></rect>        <path d="M122.771,21.827L122.771,24.255L115.896,24.255L115.896,26.897L122.226,26.897L122.226,29.343L115.896,29.343L115.896,34.431L112.59,34.431L112.59,21.827L122.771,21.827Z" style="fill:white;fill-rule:nonzero;"></path>        <path d="M124.181,21.827L133.985,21.827L133.985,24.273L127.486,24.273L127.486,26.558L133.554,26.558L133.554,28.951L127.486,28.951L127.486,31.95L134.568,31.95L134.568,34.431L124.181,34.431L124.181,21.827Z" style="fill:white;fill-rule:nonzero;"></path>        <path d="M152.584,31.557C152.096,32.289 151.626,33.004 150.574,33.699C150.011,34.074 148.714,34.806 146.873,34.806C143.361,34.806 140.524,32.379 140.524,28.111C140.524,24.38 143.191,21.434 146.948,21.434C148.47,21.434 149.822,21.934 150.818,22.684C151.738,23.38 152.17,24.077 152.546,24.702L149.916,25.951C149.729,25.541 149.503,25.112 148.921,24.648C148.282,24.166 147.644,24.023 147.099,24.023C144.957,24.023 143.83,25.916 143.83,28.022C143.83,30.79 145.314,32.164 147.099,32.164C148.827,32.164 149.521,31.021 149.973,30.29L152.584,31.557Z" style="fill:white;fill-rule:nonzero;"></path>        <path d="M152.19,21.827L156.004,21.827L158.859,26.148C159.028,25.791 159.065,25.719 159.403,25.202L161.677,21.827L165.452,21.827L160.437,28.468L160.437,34.431L157.169,34.431L157.169,28.557L152.19,21.827Z" style="fill:white;fill-rule:nonzero;"></path>        <path d="M176.535,31.557C176.047,32.289 175.577,33.004 174.525,33.699C173.962,34.074 172.665,34.806 170.824,34.806C167.313,34.806 164.476,32.379 164.476,28.111C164.476,24.38 167.143,21.434 170.899,21.434C172.421,21.434 173.773,21.934 174.77,22.684C175.689,23.38 176.121,24.077 176.497,24.702L173.867,25.951C173.68,25.541 173.454,25.112 172.872,24.648C172.233,24.166 171.595,24.023 171.05,24.023C168.908,24.023 167.781,25.916 167.781,28.022C167.781,30.79 169.266,32.164 171.05,32.164C172.778,32.164 173.473,31.021 173.924,30.29L176.535,31.557Z" style="fill:white;fill-rule:nonzero;"></path>        <path d="M177.776,21.809L181.082,21.809L181.082,31.771L186.267,31.771L186.267,34.431L177.776,34.431L177.776,21.809Z" style="fill:white;fill-rule:nonzero;"></path>        <path d="M187.789,21.827L197.594,21.827L197.594,24.273L191.095,24.273L191.095,26.558L197.162,26.558L197.162,28.951L191.095,28.951L191.095,31.95L198.177,31.95L198.177,34.431L187.789,34.431L187.789,21.827Z" style="fill:white;fill-rule:nonzero;"></path>        <path d="M99.013,43.91L99.013,45.564L102.577,45.564L102.577,46.7L99.013,46.7L99.013,48.583L103.175,48.583L103.175,49.768L97.65,49.768L97.65,42.734L102.913,42.734L102.913,43.91L99.013,43.91Z" style="fill:white;fill-rule:nonzero;"></path>        <path d="M111.84,42.734L113.202,42.734L113.202,49.768L111.997,49.768L108.758,44.837L108.842,49.768L107.489,49.768L107.489,42.734L108.737,42.734L112.007,47.706L111.84,42.734Z" style="fill:white;fill-rule:nonzero;"></path>        <path d="M124.038,45.922L124.038,49.768L122.854,49.768L122.854,49.17C122.193,49.789 121.448,49.948 120.831,49.948C118.545,49.948 117.34,48.214 117.34,46.321C117.34,44.109 118.88,42.555 120.914,42.555C122.455,42.555 123.587,43.452 124.038,44.628L122.718,45.135C122.581,44.747 122.183,43.741 120.925,43.741C119.53,43.741 118.849,44.896 118.849,46.282C118.849,47.826 119.74,48.712 120.946,48.712C121.722,48.712 122.644,48.324 122.77,47.079L120.925,47.079L120.925,45.922L124.038,45.922Z" style="fill:white;fill-rule:nonzero;"></path>        <rect x="128.804" y="42.734" width="1.363" height="7.034" style="fill:white;"></rect>        <path d="M139.479,42.734L140.843,42.734L140.843,49.768L139.638,49.768L136.397,44.837L136.481,49.768L135.13,49.768L135.13,42.734L136.377,42.734L139.647,47.706L139.479,42.734Z" style="fill:white;fill-rule:nonzero;"></path>        <path d="M147.118,43.91L147.118,45.564L150.683,45.564L150.683,46.7L147.118,46.7L147.118,48.583L151.28,48.583L151.28,49.768L145.756,49.768L145.756,42.734L151.019,42.734L151.019,43.91L147.118,43.91Z" style="fill:white;fill-rule:nonzero;"></path>        <path d="M156.915,43.91L156.915,45.564L160.479,45.564L160.479,46.7L156.915,46.7L156.915,48.583L161.077,48.583L161.077,49.768L155.554,49.768L155.554,42.734L160.815,42.734L160.815,43.91L156.915,43.91Z" style="fill:white;fill-rule:nonzero;"></path>        <path d="M166.755,43.87L166.755,46.072L167.237,46.072C167.71,46.072 167.888,46.062 168.149,46.051C168.454,46.042 169.45,45.993 169.45,44.965C169.45,44.817 169.438,44.298 168.862,44.02C168.569,43.879 168.212,43.87 167.396,43.87L166.755,43.87ZM165.382,42.734L167.741,42.734C168.726,42.745 169.388,42.745 170.036,43.243C170.497,43.601 170.854,44.159 170.854,44.976C170.854,46.321 169.817,46.79 169.397,46.909L171.044,49.768L169.46,49.768L167.993,47.159L166.755,47.159L166.755,49.768L165.382,49.768L165.382,42.734Z" style="fill:white;fill-rule:nonzero;"></path>        <rect x="175.39" y="42.734" width="1.361" height="7.034" style="fill:white;"></rect>        <path d="M186.065,42.734L187.427,42.734L187.427,49.768L186.222,49.768L182.983,44.837L183.067,49.768L181.714,49.768L181.714,42.734L182.962,42.734L186.233,47.706L186.065,42.734Z" style="fill:white;fill-rule:nonzero;"></path>        <path d="M198.263,45.922L198.263,49.768L197.079,49.768L197.079,49.17C196.419,49.789 195.675,49.948 195.056,49.948C192.771,49.948 191.565,48.214 191.565,46.321C191.565,44.109 193.106,42.555 195.14,42.555C196.681,42.555 197.812,43.452 198.263,44.628L196.942,45.135C196.806,44.747 196.407,43.741 195.149,43.741C193.755,43.741 193.075,44.896 193.075,46.282C193.075,47.826 193.966,48.712 195.171,48.712C195.946,48.712 196.868,48.324 196.995,47.079L195.149,47.079L195.149,45.922L198.263,45.922Z" style="fill:white;fill-rule:nonzero;"></path>        <rect x="97.641" y="37.778" width="100.612" height="1.502" style="fill:white;"></rect>        <path d="M202.686,24.128C202.611,24.314 202.51,24.474 202.377,24.61C202.247,24.748 202.093,24.853 201.914,24.931C201.736,25.01 201.546,25.048 201.339,25.048C201.13,25.048 200.937,25.01 200.757,24.931C200.578,24.853 200.423,24.748 200.292,24.61C200.16,24.474 200.058,24.314 199.983,24.128C199.909,23.943 199.871,23.742 199.871,23.522C199.871,23.31 199.909,23.112 199.983,22.928C200.058,22.746 200.16,22.586 200.292,22.451C200.423,22.317 200.578,22.211 200.757,22.133C200.937,22.055 201.13,22.016 201.339,22.016C201.546,22.016 201.736,22.055 201.914,22.133C202.093,22.211 202.247,22.317 202.377,22.451C202.51,22.586 202.611,22.746 202.686,22.928C202.761,23.112 202.799,23.31 202.799,23.522C202.799,23.742 202.761,23.943 202.686,24.128ZM202.979,22.824C202.884,22.61 202.755,22.421 202.595,22.264C202.433,22.105 202.244,21.98 202.028,21.89C201.813,21.8 201.584,21.754 201.339,21.754C201.096,21.754 200.864,21.8 200.647,21.89C200.431,21.98 200.241,22.105 200.077,22.264C199.915,22.421 199.786,22.61 199.69,22.824C199.597,23.04 199.548,23.272 199.548,23.522C199.548,23.778 199.597,24.016 199.69,24.233C199.786,24.451 199.915,24.639 200.077,24.798C200.241,24.958 200.431,25.083 200.647,25.172C200.864,25.259 201.096,25.304 201.339,25.304C201.584,25.304 201.813,25.259 202.028,25.172C202.244,25.083 202.433,24.958 202.595,24.798C202.755,24.639 202.884,24.451 202.979,24.233C203.074,24.016 203.121,23.778 203.121,23.522C203.121,23.272 203.074,23.04 202.979,22.824Z" style="fill:white;fill-rule:nonzero;"></path>        <path d="M201.319,23.425L201.015,23.425L201.015,22.828L201.4,22.828C201.45,22.828 201.5,22.832 201.547,22.839C201.6,22.847 201.642,22.861 201.681,22.88C201.72,22.9 201.751,22.928 201.774,22.965C201.801,23.002 201.813,23.052 201.813,23.116C201.813,23.19 201.798,23.248 201.77,23.29C201.743,23.332 201.708,23.361 201.661,23.38C201.615,23.402 201.564,23.415 201.505,23.417C201.447,23.422 201.384,23.425 201.319,23.425ZM201.962,23.499C202.056,23.421 202.103,23.297 202.103,23.128C202.103,22.95 202.049,22.813 201.942,22.726C201.836,22.637 201.67,22.592 201.447,22.592L200.724,22.592L200.724,24.466L201.015,24.466L201.015,23.661L201.322,23.661L201.833,24.466L202.146,24.466L201.611,23.64C201.751,23.624 201.866,23.579 201.962,23.499Z" style="fill:white;fill-rule:nonzero;"></path>    </g></svg>